<?xml version="1.0" encoding="UTF-8"?>
<svg version="1.1" xmlns="http://www.w3.org/2000/svg" width="544" height="469">
<path d="M0 0 C0.66406109 -0.00205263 1.32812218 -0.00410527 2.01230633 -0.0062201 C4.24727839 -0.01189433 6.4821889 -0.01043233 8.7171669 -0.00901413 C10.33184005 -0.01159752 11.94651255 -0.01461061 13.56118417 -0.01801753 C18.006122 -0.0260938 22.45104369 -0.02787745 26.89598799 -0.028615 C31.68684924 -0.03046445 36.4777021 -0.03801123 41.2685585 -0.04475021 C51.74786228 -0.05833837 62.22716223 -0.06435897 72.70647335 -0.06876087 C79.24814752 -0.0715224 85.78982021 -0.07575958 92.33149338 -0.08026505 C110.43883929 -0.09245819 128.54618401 -0.10275751 146.65353394 -0.10614014 C148.39225988 -0.10646949 148.39225988 -0.10646949 150.1661116 -0.10680549 C151.32805514 -0.10702377 152.48999868 -0.10724204 153.68715262 -0.10746694 C156.04174153 -0.1079104 158.39633044 -0.10835697 160.75091934 -0.10880661 C161.91887984 -0.10902804 163.08684034 -0.10924947 164.29019359 -0.10947761 C183.21854201 -0.11342626 202.14685195 -0.13088213 221.07518551 -0.15416613 C240.5025255 -0.17787134 259.92984617 -0.1903416 279.35720086 -0.19150805 C290.26741013 -0.19242527 301.17756927 -0.19818921 312.08776474 -0.21632767 C321.37744354 -0.23171741 330.66705671 -0.23685576 339.95674583 -0.22858956 C344.69693791 -0.22467912 349.43699775 -0.22563193 354.17717361 -0.23964691 C358.51736861 -0.25236201 362.85733168 -0.25120937 367.19752625 -0.2390562 C368.76685444 -0.23709506 370.33619892 -0.24019688 371.9055042 -0.24890056 C389.71823323 -0.34143122 389.71823323 -0.34143122 395.46673965 5.06892776 C395.92177872 5.74955276 396.37681778 6.43017776 396.8456459 7.13142776 C397.31873184 7.81205276 397.79181778 8.49267776 398.27923965 9.19392776 C400.18420793 12.46335428 400.53447387 15.11717596 400.54236698 18.81985378 C400.54682483 19.78927731 400.55128267 20.75870083 400.5558756 21.75750083 C400.55559906 23.35873304 400.55559906 23.35873304 400.55531693 24.99231339 C400.55899361 26.12445969 400.5626703 27.25660599 400.5664584 28.42305976 C400.57751829 32.23690505 400.58134299 36.05072312 400.58514786 39.86458206 C400.59087759 42.59092824 400.59804442 45.31727031 400.60506058 48.04361343 C400.62482438 56.23972461 400.6348912 64.43583703 400.64378837 72.63196608 C400.6481715 76.49169461 400.65353825 80.35142177 400.65877724 84.21114922 C400.67578961 97.04190378 400.6902837 109.87265748 400.69752598 122.70342159 C400.69943587 126.03318343 400.7013562 129.36294525 400.70331192 132.69270706 C400.70379566 133.52030298 400.7042794 134.3478989 400.7047778 135.20057348 C400.71307781 148.60659684 400.73841418 162.01253096 400.7708926 175.41851535 C400.80396574 189.18220179 400.82197498 202.94584289 400.82517022 216.70956928 C400.82733511 224.43737465 400.83608057 232.1650499 400.86163139 239.89281654 C400.88334193 246.47430712 400.89138714 253.05563597 400.88166461 259.6371583 C400.87712073 262.99423851 400.88119351 266.35071459 400.89842606 269.70779419 C400.91607981 273.35068633 400.90906969 276.99273164 400.8958931 280.63562393 C400.91234697 282.22012574 400.91234697 282.22012574 400.92913324 283.83663768 C400.86347348 291.3542974 399.49130315 296.96262727 394.1581459 302.44392776 C385.57141073 307.71306072 377.44470544 307.54322117 367.68057632 307.4676857 C366.06927649 307.46629439 364.45797507 307.4662234 362.84667504 307.46735495 C358.42961323 307.46661567 354.0128055 307.44707682 349.59580922 307.42439973 C344.82825674 307.40320452 340.06068605 307.39943309 335.29309464 307.39345169 C325.95816527 307.37895356 316.62335595 307.34827164 307.28848849 307.31199834 C296.41935778 307.2702973 285.55020618 307.24399269 274.68102814 307.21817204 C255.29005144 307.171521 235.8991503 307.10993589 216.50824356 307.04036331 C197.68795104 306.97284339 178.86767093 306.91725502 160.04730606 306.87434769 C139.55489937 306.82760998 119.06252727 306.77470399 98.57016671 306.71064872 C96.38573909 306.70382475 94.20131147 306.69700178 92.01688385 306.69017982 C90.94208502 306.68681218 89.86728619 306.68344453 88.7599177 306.67997483 C81.1814229 306.65659759 73.60292408 306.63744902 66.02441406 306.61977959 C56.79184966 306.59805883 47.55934126 306.56905087 38.32683001 306.53080032 C33.61525744 306.5114383 28.90373084 306.49523507 24.19212341 306.48758888 C19.88057825 306.48049085 15.56916861 306.46425039 11.25768305 306.44065519 C9.69659907 306.43371215 8.1354959 306.4301195 6.57439648 306.4301853 C4.4543939 306.42976969 2.3347979 306.41717216 0.21486092 306.40152073 C-0.96325161 306.39761619 -2.14136414 306.39371165 -3.35517704 306.38968879 C-9.86375806 305.87035591 -13.93978533 303.68011722 -18.5918541 299.13142776 C-22.30883728 293.57817357 -22.02108012 288.28451692 -21.9929924 281.84057999 C-21.99978907 280.69840887 -22.00658574 279.55623775 -22.01358837 278.37945539 C-22.03258945 274.54953547 -22.03012157 270.71993455 -22.02764511 266.88997269 C-22.03499058 264.14509245 -22.04674364 261.40023463 -22.05817795 258.6553688 C-22.08307637 251.97153585 -22.0913415 245.28778228 -22.09301508 238.60390683 C-22.09444157 233.16980945 -22.10061084 227.73573821 -22.11011696 222.30164909 C-22.13653096 206.88816773 -22.15037598 191.47474897 -22.14812554 176.06124481 C-22.14800567 175.23064298 -22.1478858 174.40004115 -22.1477623 173.54426956 C-22.14763966 172.71265123 -22.14751701 171.8810329 -22.14739066 171.02421401 C-22.1461714 157.5478598 -22.17487795 144.0717571 -22.2171774 130.59547564 C-22.26028758 116.75144237 -22.28098693 102.90753173 -22.27839607 89.06342965 C-22.2774008 81.29366673 -22.28561338 73.5241675 -22.31793022 65.7544651 C-22.34527044 59.13896617 -22.35175103 52.52385045 -22.33140195 45.90831944 C-22.32161766 42.53465846 -22.32466045 39.16233108 -22.3474617 35.78864288 C-22.37061027 32.12618171 -22.35669957 28.46564605 -22.33356857 24.80322647 C-22.34899926 23.74406924 -22.36442995 22.68491201 -22.38032824 21.5936591 C-22.2787075 14.30473422 -20.42861282 9.62955064 -15.5918541 4.13142776 C-10.6061293 0.3327803 -6.14600795 0.00646525 0 0 Z M45.4081459 42.13142776 C45.0801483 45.07249725 45.0801483 45.07249725 46.66156387 46.57356644 C47.23535782 47.06059036 47.80915176 47.54761429 48.4003334 48.04939651 C49.02295059 48.5811348 49.64556778 49.11287308 50.28705215 49.66072464 C50.94576309 50.20793167 51.60447403 50.7551387 52.2831459 51.31892776 C52.93412247 51.87773636 53.58509903 52.43654495 54.25580215 53.01228714 C57.42321025 56.06500552 57.42321025 56.06500552 61.4081459 57.13142776 C61.4081459 57.79142776 61.4081459 58.45142776 61.4081459 59.13142776 C62.94009863 60.50355077 64.53735671 61.80297236 66.1581459 63.06892776 C70.39397703 66.45216211 74.44683291 69.93230333 78.4081459 73.63142776 C82.07357977 77.04482266 85.80532565 80.31747203 89.7206459 83.44392776 C95.2368276 87.85687312 100.32105101 92.67750917 105.37030411 97.61116409 C105.9809169 98.19664017 106.59152969 98.78211624 107.2206459 99.38533401 C107.76334122 99.91457474 108.30603653 100.44381546 108.86517715 100.98909378 C110.49003123 102.42893965 110.49003123 102.42893965 113.4081459 102.13142776 C113.7793959 103.02861526 113.7793959 103.02861526 114.1581459 103.94392776 C115.58887116 106.44769696 116.97730411 107.61215164 119.4081459 109.13142776 C120.0681459 109.13142776 120.7281459 109.13142776 121.4081459 109.13142776 C121.74652481 109.98994339 121.74652481 109.98994339 122.09173965 110.86580276 C123.78131947 113.77368495 125.82411779 115.31185023 128.4706459 117.38142776 C133.02471976 120.99472584 137.36960109 124.74485726 141.63080215 128.69783401 C143.28702401 130.34070087 143.28702401 130.34070087 145.4081459 130.13142776 C145.7381459 131.12142776 146.0681459 132.11142776 146.4081459 133.13142776 C147.93767467 134.50625228 149.53337497 135.80808674 151.1581459 137.06892776 C156.29234283 141.157518 161.12534386 145.47123497 165.90326309 149.96907425 C170.96382451 155.5153491 170.96382451 155.5153491 177.4081459 158.13142776 C177.5937709 158.68830276 177.7793959 159.24517776 177.9706459 159.81892776 C179.75802981 162.69428448 181.85787336 164.04323527 184.65423965 165.88533401 C186.44208169 167.15553804 187.90199961 168.54237433 189.4081459 170.13142776 C190.0681459 169.80142776 190.7281459 169.47142776 191.4081459 169.13142776 C191.4081459 168.47142776 191.4081459 167.81142776 191.4081459 167.13142776 C191.97791153 166.88134964 192.54767715 166.63127151 193.1347084 166.37361526 C195.73954213 164.9503556 197.61085293 163.28044136 199.7831459 161.25642776 C203.89994733 157.47915635 208.08816264 153.81165854 212.3456459 150.19392776 C216.66647504 146.51606876 220.9190216 142.78642212 225.0956459 138.94392776 C229.47687467 134.92192127 234.01578552 131.15883293 238.6425209 127.42439651 C242.51623032 124.21271936 246.20804049 120.81721614 249.91205215 117.41267776 C252.47179093 115.07326079 255.07823891 112.80518597 257.72455215 110.56502151 C260.3588344 108.32190879 262.9453145 106.02449708 265.5409584 103.73689651 C267.12018644 102.37902471 268.75860008 101.09045267 270.4081459 99.81892776 C271.3981459 98.98361526 271.3981459 98.98361526 272.4081459 98.13142776 C272.4081459 97.47142776 272.4081459 96.81142776 272.4081459 96.13142776 C272.97404434 95.88521683 273.53994278 95.63900589 274.12298965 95.38533401 C276.80062849 93.91606553 278.73858203 92.15390341 280.9706459 90.06892776 C284.48856799 86.83944439 288.05996965 83.74682258 291.7831459 80.75642776 C296.92284147 76.59814508 301.77717489 72.19271276 306.62298965 67.70174026 C309.55607717 64.99490774 312.53578937 62.35336538 315.55267715 59.74080276 C316.828141 58.6345057 318.0959953 57.51939343 319.35736465 56.39705276 C323.66073315 52.57559391 328.08933159 49.03062009 332.7206459 45.61189651 C333.2775209 45.12334183 333.8343959 44.63478714 334.4081459 44.13142776 C334.4081459 43.47142776 334.4081459 42.81142776 334.4081459 42.13142776 C239.0381459 42.13142776 143.6681459 42.13142776 45.4081459 42.13142776 Z M13.4081459 64.13142776 C13.4081459 125.84142776 13.4081459 187.55142776 13.4081459 251.13142776 C18.53837654 249.23621488 18.53837654 249.23621488 20.4081459 245.13142776 C21.73917646 244.46017529 23.07291055 243.79427674 24.4081459 243.13142776 C25.75329714 242.04567945 27.0651618 240.9177381 28.3456459 239.75642776 C30.5823206 237.75213486 32.80619506 235.81479776 35.1581459 233.94392776 C37.40033848 232.20392524 37.40033848 232.20392524 39.2206459 230.31892776 C41.06484574 228.47472793 42.93857888 226.7745322 44.9081459 225.06892776 C48.46470089 221.9834836 51.94558218 218.82147239 55.4081459 215.63142776 C59.34088286 212.01040612 63.31028883 208.44183608 67.34955215 204.94002151 C69.8977124 202.70131526 72.40225183 200.41732565 74.9081459 198.13142776 C78.68799562 194.68432961 82.49769459 191.28099295 86.3612709 187.92830276 C89.68304226 185.01224394 92.94324026 182.02799006 96.20892715 179.04939651 C98.4081459 177.13142776 98.4081459 177.13142776 101.4081459 175.13142776 C101.4081459 174.47142776 101.4081459 173.81142776 101.4081459 173.13142776 C101.97791153 172.88006058 102.54767715 172.62869339 103.1347084 172.36970901 C105.71560994 170.96396024 107.61884345 169.30477019 109.7831459 167.31892776 C113.25925746 164.16457199 116.77974877 161.10857413 120.4081459 158.13142776 C118.83696957 154.16214019 116.25367897 151.9347697 113.0956459 149.13142776 C112.15076309 148.28580276 111.20588028 147.44017776 110.23236465 146.56892776 C105.86102834 142.11886989 105.86102834 142.11886989 100.4081459 140.13142776 C100.4081459 139.47142776 100.4081459 138.81142776 100.4081459 138.13142776 C98.53308502 136.43168253 98.53308502 136.43168253 96.0956459 134.63142776 C91.00990024 130.68471501 86.33573316 126.44949302 81.6581459 122.03767776 C79.64530903 119.91595538 79.64530903 119.91595538 77.4081459 120.13142776 C77.4081459 119.47142776 77.4081459 118.81142776 77.4081459 118.13142776 C76.7481459 118.13142776 76.0881459 118.13142776 75.4081459 118.13142776 C75.4081459 117.47142776 75.4081459 116.81142776 75.4081459 116.13142776 C73.76132228 114.66041831 73.76132228 114.66041831 71.5956459 113.13142776 C66.81580167 109.52399815 62.43188067 105.59225978 58.02923965 101.53767776 C55.84795493 99.53518687 53.64508318 97.57102164 51.4081459 95.63142776 C48.22982894 92.87472427 45.12912691 90.04275063 42.0331459 87.19392776 C37.81339188 83.34035074 33.47019863 79.74405874 28.9706459 76.22517776 C25.0332918 73.00807136 21.35593669 69.5253668 17.6581459 66.03767776 C15.64530903 63.91595538 15.64530903 63.91595538 13.4081459 64.13142776 Z M363.4081459 64.13142776 C363.1812709 64.75017776 362.9543959 65.36892776 362.7206459 66.00642776 C361.00368316 68.78627221 359.41132291 68.94412523 356.4081459 70.13142776 C354.70133643 71.7569606 353.03154395 73.42258771 351.4081459 75.13142776 C350.4181459 75.79142776 349.4281459 76.45142776 348.4081459 77.13142776 C348.4081459 77.79142776 348.4081459 78.45142776 348.4081459 79.13142776 C347.8512709 79.37892776 347.2943959 79.62642776 346.7206459 79.88142776 C343.98403677 81.36067595 341.73163721 83.06610216 339.4081459 85.13142776 C339.4081459 85.79142776 339.4081459 86.45142776 339.4081459 87.13142776 C338.3872084 87.40986526 338.3872084 87.40986526 337.3456459 87.69392776 C333.90767098 89.37634103 331.92017292 91.45675929 329.2987709 94.19783401 C325.14265782 98.44840422 320.54060895 102.22705742 315.9081459 105.94392776 C315.0831459 106.66580276 314.2581459 107.38767776 313.4081459 108.13142776 C313.4081459 108.79142776 313.4081459 109.45142776 313.4081459 110.13142776 C312.6862709 110.35830276 311.9643959 110.58517776 311.2206459 110.81892776 C307.83114287 112.40069585 305.98350493 114.43044147 303.4081459 117.13142776 C302.31371581 118.03913045 301.20949859 118.93516672 300.0956459 119.81892776 C298.7653334 120.96361526 298.7653334 120.96361526 297.4081459 122.13142776 C297.4081459 122.79142776 297.4081459 123.45142776 297.4081459 124.13142776 C296.6037709 124.39955276 295.7993959 124.66767776 294.9706459 124.94392776 C293.7022084 125.53174026 293.7022084 125.53174026 292.4081459 126.13142776 C292.0781459 127.12142776 291.7481459 128.11142776 291.4081459 129.13142776 C290.08728395 129.82247475 288.75121178 130.48459218 287.4081459 131.13142776 C285.81018481 132.48652085 284.25061278 133.88750948 282.7206459 135.31892776 C278.69241269 139.0304008 274.55048801 142.4022017 270.12298965 145.62361526 C268.13269097 147.11839995 268.13269097 147.11839995 267.4081459 150.13142776 C266.6450209 150.42017776 265.8818959 150.70892776 265.0956459 151.00642776 C261.767499 152.39960554 260.55089061 154.289664 258.4081459 157.13142776 C259.26537247 157.84427933 260.12259903 158.55713089 261.00580215 159.29158401 C266.47970705 163.86798307 271.86278502 168.4178715 276.83392715 173.54549026 C279.08211412 175.81041311 281.47405074 177.88300338 283.8925209 179.96345901 C285.97765636 181.76043134 288.04684766 183.57254056 290.1112709 185.39314651 C291.46014033 186.57684158 292.80909952 187.76043438 294.1581459 188.94392776 C294.80847794 189.5196553 295.45880997 190.09538284 296.12884903 190.68855667 C297.06374161 191.50525833 297.06374161 191.50525833 298.0175209 192.33845901 C298.57407364 192.82806107 299.13062637 193.31766312 299.70404434 193.82210159 C301.3952455 195.22212984 301.3952455 195.22212984 303.55755997 196.11848831 C305.4081459 197.13142776 305.4081459 197.13142776 306.4081459 200.13142776 C309.46322617 203.16419975 309.46322617 203.16419975 313.4081459 204.13142776 C313.7381459 205.12142776 314.0681459 206.11142776 314.4081459 207.13142776 C315.96661734 208.79042451 315.96661734 208.79042451 317.8456459 210.31892776 C318.46310684 210.84873245 319.08056778 211.37853714 319.71673965 211.92439651 C321.33315392 213.32505526 321.33315392 213.32505526 323.4081459 213.13142776 C323.7381459 214.12142776 324.0681459 215.11142776 324.4081459 216.13142776 C325.96661734 217.79042451 325.96661734 217.79042451 327.8456459 219.31892776 C328.46310684 219.84873245 329.08056778 220.37853714 329.71673965 220.92439651 C331.33315392 222.32505526 331.33315392 222.32505526 333.4081459 222.13142776 C333.7381459 223.12142776 334.0681459 224.11142776 334.4081459 225.13142776 C335.92884563 226.71159544 335.92884563 226.71159544 337.8456459 228.25642776 C341.14231181 231.04409319 344.35309362 233.89866796 347.5331459 236.81892776 C350.16787264 239.20349667 352.71882888 241.47538971 355.7206459 243.38142776 C358.69482131 245.31810013 360.97727629 247.55756582 363.4081459 250.13142776 C365.8058731 246.53483697 365.68303704 243.97405307 365.64865494 239.82327652 C365.65121821 238.69849649 365.65121821 238.69849649 365.65383327 237.55099362 C365.65713497 235.03124056 365.64611339 232.51175212 365.63519669 229.99202347 C365.63463272 228.18864829 365.63494885 226.38527265 365.6360817 224.58189774 C365.63665677 219.67929915 365.62487738 214.77679794 365.61093378 209.87422204 C365.59845225 204.7532718 365.59725796 199.63231946 365.59488297 194.51135635 C365.58866061 184.81100123 365.57223957 175.11069106 365.55218399 165.41035575 C365.52984848 154.36818091 365.51883747 143.32600396 365.50879312 132.28381217 C365.487874 109.56632576 365.45268335 86.84887928 365.4081459 64.13142776 C364.7481459 64.13142776 364.0881459 64.13142776 363.4081459 64.13142776 Z M231.4081459 180.13142776 C229.90242934 181.24876506 228.40370299 182.37552812 226.9081459 183.50642776 C226.0728334 184.13291214 225.2375209 184.75939651 224.3768959 185.40486526 C223.7272084 185.97463089 223.0775209 186.54439651 222.4081459 187.13142776 C222.4081459 187.79142776 222.4081459 188.45142776 222.4081459 189.13142776 C221.56123184 189.50074417 221.56123184 189.50074417 220.6972084 189.87752151 C218.01735318 191.34549682 216.02855787 193.12499466 213.7831459 195.19392776 C209.60259035 199.03420554 209.60259035 199.03420554 207.4081459 200.13142776 C207.4081459 200.79142776 207.4081459 201.45142776 207.4081459 202.13142776 C206.6347084 202.47174026 206.6347084 202.47174026 205.8456459 202.81892776 C203.0585986 204.31964555 200.61980642 206.11287633 198.09173965 208.01033401 C194.16486572 210.62521295 189.94816653 210.55414849 185.4081459 210.13142776 C177.84413677 208.13338762 172.96088006 202.38640661 167.4081459 197.13142776 C165.4382367 195.38159999 163.44897818 193.65777221 161.45111465 191.94002151 C159.8809052 190.54995081 158.34863488 189.1169339 156.83392715 187.66658401 C155.50941544 186.41168167 155.50941544 186.41168167 154.1581459 185.13142776 C153.34861465 184.34767776 152.5390834 183.56392776 151.7050209 182.75642776 C149.58875336 180.90028505 149.58875336 180.90028505 147.2987709 181.25642776 C145.15169438 182.19122185 145.15169438 182.19122185 142.4081459 184.13142776 C142.4081459 184.79142776 142.4081459 185.45142776 142.4081459 186.13142776 C141.86029434 186.36088089 141.31244278 186.59033401 140.74798965 186.82674026 C137.72722324 188.51110751 135.49603855 190.64208458 132.9706459 193.00642776 C132.44841446 193.49184036 131.92618301 193.97725296 131.38812637 194.47737503 C129.72423805 196.02460789 128.06586496 197.5775892 126.4081459 199.13142776 C106.63471379 217.61437056 106.63471379 217.61437056 96.5018959 225.35017776 C95.8109584 225.93799026 95.1200209 226.52580276 94.4081459 227.13142776 C94.4081459 227.79142776 94.4081459 228.45142776 94.4081459 229.13142776 C93.84611465 229.37892776 93.2840834 229.62642776 92.7050209 229.88142776 C90.01722022 231.34417644 87.94409108 233.0994765 85.6581459 235.13142776 C84.85892715 235.83267776 84.0597084 236.53392776 83.2362709 237.25642776 C81.17544586 238.93364205 81.17544586 238.93364205 81.4081459 241.13142776 C80.2943959 241.47174026 80.2943959 241.47174026 79.1581459 241.81892776 C75.87614723 243.38533622 74.6128685 245.28662441 72.4081459 248.13142776 C70.1581459 249.44392776 70.1581459 249.44392776 68.4081459 250.13142776 C68.4081459 250.79142776 68.4081459 251.45142776 68.4081459 252.13142776 C67.82242813 252.39568558 67.23671036 252.65994339 66.63324356 252.93220901 C64.32464919 254.17642841 62.70646861 255.5194158 60.8065834 257.31892776 C60.15173965 257.93509964 59.4968959 258.55127151 58.8222084 259.18611526 C57.81287247 260.14904495 57.81287247 260.14904495 56.7831459 261.13142776 C56.1025209 261.77338089 55.4218959 262.41533401 54.7206459 263.07674026 C52.25711278 265.4039514 49.80455997 267.7350137 47.4081459 270.13142776 C141.4581459 270.13142776 235.5081459 270.13142776 332.4081459 270.13142776 C330.7581459 268.48142776 329.1081459 266.83142776 327.4081459 265.13142776 C326.5212709 264.20330276 325.6343959 263.27517776 324.7206459 262.31892776 C322.69652441 259.90236115 322.69652441 259.90236115 320.4081459 260.13142776 C320.4081459 259.47142776 320.4081459 258.81142776 320.4081459 258.13142776 C316.92816083 254.49509237 316.92816083 254.49509237 312.4081459 253.13142776 C312.0781459 252.14142776 311.7481459 251.15142776 311.4081459 250.13142776 C309.94548447 248.86346022 309.94548447 248.86346022 308.1581459 247.75642776 C304.8049686 245.57537881 302.21231699 242.98353339 299.4081459 240.13142776 C291.43537629 232.42336134 283.37333968 224.90445004 274.68548965 218.00642776 C272.60089856 216.29012635 270.7191984 214.50987423 268.8456459 212.56892776 C267.6390834 211.36236526 267.6390834 211.36236526 266.4081459 210.13142776 C265.7481459 210.13142776 265.0881459 210.13142776 264.4081459 210.13142776 C264.0781459 209.14142776 263.7481459 208.15142776 263.4081459 207.13142776 C261.87861714 205.75660325 260.28291684 204.45476879 258.6581459 203.19392776 C254.15936938 199.61362707 249.90717888 195.88314983 245.7206459 191.94392776 C241.15658557 187.66247179 236.53054659 183.74724001 231.4081459 180.13142776 Z " fill="#FBFBFB" transform="translate(80.59185409545898,72.86857223510742)"/>
<path d="M0 0 C0.66 0.33 1.32 0.66 2 1 C0.92949782 2.48847916 -0.15692244 3.9655195 -1.25 5.4375 C-1.85328125 6.26121094 -2.4565625 7.08492188 -3.078125 7.93359375 C-5.21207404 10.22802269 -6.07959576 10.30466566 -9 11 C-10.76848736 12.83536337 -10.76848736 12.83536337 -12.25 15.0625 C-12.77078125 15.79597656 -13.2915625 16.52945312 -13.828125 17.28515625 C-14.40820312 18.13400391 -14.40820312 18.13400391 -15 19 C-15.99 18.67 -16.98 18.34 -18 18 C-18.2475 18.639375 -18.495 19.27875 -18.75 19.9375 C-20 22 -20 22 -22.125 22.75 C-23.053125 22.87375 -23.053125 22.87375 -24 23 C-20.88361547 18.93925652 -17.92142318 16.077988 -13.6953125 13.21484375 C-11.17758464 11.41066549 -9.12885117 9.24089597 -7 7 C-4.66666667 4.66666667 -2.33333333 2.33333333 0 0 Z " fill="#CBCBCB" transform="translate(120,301)"/>
<path d="M0 0 C0.66 0.33 1.32 0.66 2 1 C-1.00628807 5.09948373 -4.38098476 8.20078842 -8.24609375 11.46484375 C-10.02503583 12.97298992 -10.02503583 12.97298992 -11.59765625 14.69140625 C-13 16 -13 16 -15 16 C-16.62514468 17.45833358 -16.62514468 17.45833358 -18 19 C-18.66 18.67 -19.32 18.34 -20 18 C-6.3667426 5.33029613 -6.3667426 5.33029613 0 0 Z " fill="#CDCDCD" transform="translate(382,144)"/>
<path d="M0 0 C8.91 0 17.82 0 27 0 C27 0.33 27 0.66 27 1 C18.09 1 9.18 1 0 1 C0 0.67 0 0.34 0 0 Z " fill="#828282" transform="translate(112,380)"/>
<path d="M0 0 C0.66 0.33 1.32 0.66 2 1 C0.75965588 2.32162881 -0.49268626 3.63200453 -1.75 4.9375 C-2.44609375 5.66839844 -3.1421875 6.39929688 -3.859375 7.15234375 C-6.00599725 9.00517646 -7.23532932 9.60771565 -10 10 C-6.66666667 6.66666667 -3.33333333 3.33333333 0 0 Z " fill="#D1D1D1" transform="translate(325,194)"/>
<path d="M0 0 C6.93 0 13.86 0 21 0 C21 0.33 21 0.66 21 1 C14.07 1 7.14 1 0 1 C0 0.67 0 0.34 0 0 Z " fill="#808080" transform="translate(55,468)"/>
<path d="M0 0 C-1.36944102 2.94956528 -2.87830409 5.52468811 -5 8 C-5.66 8 -6.32 8 -7 8 C-4.18918919 0 -4.18918919 0 0 0 Z " fill="#CECECE" transform="translate(68,76)"/>
<path d="M0 0 C0 3 0 3 -2.5 5.6875 C-3.325 6.450625 -4.15 7.21375 -5 8 C-5.66 7.34 -6.32 6.68 -7 6 C-4.69 4.02 -2.38 2.04 0 0 Z " fill="#D2D2D2" transform="translate(137,287)"/>
<path d="M0 0 C3.96 0 7.92 0 12 0 C12 0.33 12 0.66 12 1 C8.04 1 4.08 1 0 1 C0 0.67 0 0.34 0 0 Z " fill="#828282" transform="translate(334,380)"/>
<path d="M0 0 C2.35953094 2.35953094 2.49141413 3.77895617 3 7 C2.34 7 1.68 7 1 7 C1 6.01 1 5.02 1 4 C0.34 3.67 -0.32 3.34 -1 3 C-0.67 2.01 -0.34 1.02 0 0 Z " fill="#838383" transform="translate(58,368)"/>
<path d="M0 0 C2.97 0 5.94 0 9 0 C9 0.33 9 0.66 9 1 C6.03 1 3.06 1 0 1 C0 0.67 0 0.34 0 0 Z " fill="#828282" transform="translate(141,380)"/>
<path d="M0 0 C1.32 0 2.64 0 4 0 C4 0.66 4 1.32 4 2 C2.68 2 1.36 2 0 2 C0 1.34 0 0.68 0 0 Z " fill="#828282" transform="translate(146,382)"/>
<path d="M0 0 C1.65 0 3.3 0 5 0 C5.33 0.66 5.66 1.32 6 2 C3.03 1.505 3.03 1.505 0 1 C0 0.67 0 0.34 0 0 Z " fill="#848484" transform="translate(64,381)"/>
<path d="M0 0 C2.31 0 4.62 0 7 0 C7 0.33 7 0.66 7 1 C4.69 1 2.38 1 0 1 C0 0.67 0 0.34 0 0 Z " fill="#828282" transform="translate(97,380)"/>
<path d="M0 0 C2.31 0 4.62 0 7 0 C7 0.33 7 0.66 7 1 C4.69 1 2.38 1 0 1 C0 0.67 0 0.34 0 0 Z " fill="#828282" transform="translate(84,380)"/>
<path d="M0 0 C1.98 0 3.96 0 6 0 C6 0.33 6 0.66 6 1 C4.02 1 2.04 1 0 1 C0 0.67 0 0.34 0 0 Z " fill="#828282" transform="translate(105,380)"/>
<path d="M0 0 C1.32 0.33 2.64 0.66 4 1 C3.34 1.66 2.68 2.32 2 3 C2 2.34 2 1.68 2 1 C1.34 0.67 0.68 0.34 0 0 Z " fill="#838383" transform="translate(78,380)"/>
<path d="M0 0 C0.99 0.495 0.99 0.495 2 1 C1.67 1.99 1.34 2.98 1 4 C0.67 2.68 0.34 1.36 0 0 Z " fill="#838383" transform="translate(56,364)"/>
<path d="M0 0 C4 1 4 1 4 1 Z " fill="#828282" transform="translate(130,383)"/>
<path d="M0 0 C0.66 0 1.32 0 2 0 C2 0.66 2 1.32 2 2 C1.34 2 0.68 2 0 2 C0 1.34 0 0.68 0 0 Z " fill="#828282" transform="translate(97,382)"/>
<path d="M0 0 C0.66 0.66 1.32 1.32 2 2 C1.01 1.67 0.02 1.34 -1 1 C-0.67 0.67 -0.34 0.34 0 0 Z " fill="#858585" transform="translate(66,377)"/>
<path d="M0 0 C0.99 0.33 1.98 0.66 3 1 C2.01 1 1.02 1 0 1 C0 0.67 0 0.34 0 0 Z " fill="#868686" transform="translate(377,317)"/>
<path d="M0 0 C3 1 3 1 3 1 Z " fill="#838383" transform="translate(71,383)"/>
<path d="M0 0 C3 1 3 1 3 1 Z " fill="#828282" transform="translate(64,383)"/>
<path d="M0 0 C3 1 3 1 3 1 Z " fill="#878787" transform="translate(468,381)"/>
<path d="M0 0 C3 1 3 1 3 1 Z " fill="#828282" transform="translate(93,380)"/>
<path d="M0 0 C3 1 3 1 3 1 Z " fill="#838383" transform="translate(72,380)"/>
<path d="M0 0 C3 1 3 1 3 1 Z " fill="#858585" transform="translate(68,379)"/>
<path d="M0 0 C0.33 0.66 0.66 1.32 1 2 C0.34 1.67 -0.32 1.34 -1 1 C-0.67 0.67 -0.34 0.34 0 0 Z " fill="#878787" transform="translate(180,298)"/>
<path d="M0 0 C0.99 0.495 0.99 0.495 2 1 C1.01 1.495 1.01 1.495 0 2 C0 1.34 0 0.68 0 0 Z " fill="#868686" transform="translate(277,285)"/>
<path d="" fill="#858585" transform="translate(0,0)"/>
<path d="M0 0 C0.66 0 1.32 0 2 0 C1.67 0.66 1.34 1.32 1 2 C0.67 1.34 0.34 0.68 0 0 Z " fill="#858585" transform="translate(378,257)"/>
<path d="M0 0 C0.33 0.66 0.66 1.32 1 2 C0.34 1.67 -0.32 1.34 -1 1 C-0.67 0.67 -0.34 0.34 0 0 Z " fill="#878787" transform="translate(356,216)"/>
<path d="M0 0 C0.33 0.66 0.66 1.32 1 2 C0.34 1.67 -0.32 1.34 -1 1 C-0.67 0.67 -0.34 0.34 0 0 Z " fill="#868686" transform="translate(364,212)"/>
<path d="M0 0 C0.66 0 1.32 0 2 0 C1.67 0.66 1.34 1.32 1 2 C0.67 1.34 0.34 0.68 0 0 Z " fill="#858585" transform="translate(397,179)"/>
<path d="M0 0 C0.33 0.66 0.66 1.32 1 2 C0.34 1.67 -0.32 1.34 -1 1 C-0.67 0.67 -0.34 0.34 0 0 Z " fill="#888888" transform="translate(414,164)"/>
<path d="M0 0 C3 1 3 1 3 1 Z " fill="#868686" transform="translate(373,148)"/>
<path d="M0 0 C2 1 2 1 2 1 Z " fill="#828282" transform="translate(331,383)"/>
<path d="M0 0 C2 1 2 1 2 1 Z " fill="#828282" transform="translate(115,383)"/>
<path d="" fill="#838383" transform="translate(0,0)"/>
<path d="M0 0 C2 1 2 1 2 1 Z " fill="#838383" transform="translate(82,383)"/>
<path d="M0 0 C2 1 2 1 2 1 Z " fill="#828282" transform="translate(344,382)"/>
<path d="M0 0 C2 1 2 1 2 1 Z " fill="#828282" transform="translate(134,382)"/>
<path d="M0 0 C2 1 2 1 2 1 Z " fill="#828282" transform="translate(128,382)"/>
<path d="M0 0 C2 1 2 1 2 1 Z " fill="#828282" transform="translate(107,382)"/>
<path d="M0 0 C2 1 2 1 2 1 Z " fill="#828282" transform="translate(85,382)"/>
<path d="M0 0 C2 1 2 1 2 1 Z " fill="#858585" transform="translate(442,380)"/>
<path d="M0 0 C2 1 2 1 2 1 Z " fill="#858585" transform="translate(226,380)"/>
<path d="M0 0 C2 1 2 1 2 1 Z " fill="#848484" transform="translate(57,375)"/>
<path d="" fill="#848484" transform="translate(0,0)"/>
<path d="" fill="#858585" transform="translate(0,0)"/>
<path d="" fill="#858585" transform="translate(0,0)"/>
<path d="M0 0 C2 1 2 1 2 1 Z " fill="#858585" transform="translate(372,341)"/>
<path d="M0 0 C2 1 2 1 2 1 Z " fill="#858585" transform="translate(354,341)"/>
<path d="M0 0 C2 1 2 1 2 1 Z " fill="#858585" transform="translate(300,341)"/>
<path d="M0 0 C2 1 2 1 2 1 Z " fill="#858585" transform="translate(282,341)"/>
<path d="M0 0 C2 1 2 1 2 1 Z " fill="#858585" transform="translate(228,341)"/>
<path d="M0 0 C2 1 2 1 2 1 Z " fill="#858585" transform="translate(210,341)"/>
<path d="M0 0 C2 1 2 1 2 1 Z " fill="#858585" transform="translate(156,341)"/>
<path d="M0 0 C2 1 2 1 2 1 Z " fill="#868686" transform="translate(405,339)"/>
<path d="M0 0 C2 1 2 1 2 1 Z " fill="#858585" transform="translate(397,335)"/>
<path d="M0 0 C2 1 2 1 2 1 Z " fill="#868686" transform="translate(142,332)"/>
<path d="M0 0 C2 1 2 1 2 1 Z " fill="#878787" transform="translate(147,327)"/>
<path d="" fill="#858585" transform="translate(0,0)"/>
<path d="" fill="#868686" transform="translate(0,0)"/>
<path d="M0 0 C2 1 2 1 2 1 Z " fill="#878787" transform="translate(97,315)"/>
<path d="" fill="#858585" transform="translate(0,0)"/>
<path d="" fill="#878787" transform="translate(0,0)"/>
<path d="M0 0 C2 1 2 1 2 1 Z " fill="#878787" transform="translate(373,310)"/>
<path d="M0 0 C2 1 2 1 2 1 Z " fill="#888888" transform="translate(370,310)"/>
<path d="" fill="#8B8B8B" transform="translate(0,0)"/>
<path d="M0 0 C2 1 2 1 2 1 Z " fill="#888888" transform="translate(370,307)"/>
<path d="M0 0 C2 1 2 1 2 1 Z " fill="#868686" transform="translate(259,287)"/>
<path d="M0 0 C2 1 2 1 2 1 Z " fill="#858585" transform="translate(406,286)"/>
<path d="M0 0 C2 1 2 1 2 1 Z " fill="#858585" transform="translate(267,286)"/>
<path d="M0 0 C2 1 2 1 2 1 Z " fill="#878787" transform="translate(256,286)"/>
<path d="M0 0 C2 1 2 1 2 1 Z " fill="#868686" transform="translate(258,282)"/>
<path d="M0 0 C2 1 2 1 2 1 Z " fill="#858585" transform="translate(329,279)"/>
<path d="" fill="#898989" transform="translate(0,0)"/>
<path d="" fill="#858585" transform="translate(0,0)"/>
<path d="M0 0 C2 1 2 1 2 1 Z " fill="#878787" transform="translate(250,278)"/>
<path d="M0 0 C2 1 2 1 2 1 Z " fill="#858585" transform="translate(288,275)"/>
<path d="" fill="#898989" transform="translate(0,0)"/>
<path d="M0 0 C2 1 2 1 2 1 Z " fill="#858585" transform="translate(299,267)"/>
<path d="M0 0 C2 1 2 1 2 1 Z " fill="#868686" transform="translate(313,263)"/>
<path d="" fill="#878787" transform="translate(0,0)"/>
<path d="M0 0 C2 1 2 1 2 1 Z " fill="#868686" transform="translate(316,262)"/>
<path d="M0 0 C2 1 2 1 2 1 Z " fill="#858585" transform="translate(313,260)"/>
<path d="M0 0 C2 1 2 1 2 1 Z " fill="#888888" transform="translate(177,248)"/>
<path d="M0 0 C2 1 2 1 2 1 Z " fill="#8A8A8A" transform="translate(185,240)"/>
<path d="M0 0 C2 1 2 1 2 1 Z " fill="#878787" transform="translate(273,237)"/>
<path d="" fill="#8A8A8A" transform="translate(0,0)"/>
<path d="" fill="#858585" transform="translate(0,0)"/>
<path d="M0 0 C2 1 2 1 2 1 Z " fill="#858585" transform="translate(292,220)"/>
<path d="M0 0 C2 1 2 1 2 1 Z " fill="#878787" transform="translate(357,219)"/>
<path d="M0 0 C2 1 2 1 2 1 Z " fill="#878787" transform="translate(352,219)"/>
<path d="" fill="#878787" transform="translate(0,0)"/>
<path d="M0 0 C2 1 2 1 2 1 Z " fill="#858585" transform="translate(365,211)"/>
<path d="M0 0 C2 1 2 1 2 1 Z " fill="#868686" transform="translate(309,204)"/>
<path d="M0 0 C2 1 2 1 2 1 Z " fill="#858585" transform="translate(311,203)"/>
<path d="" fill="#888888" transform="translate(0,0)"/>
<path d="M0 0 C2 1 2 1 2 1 Z " fill="#868686" transform="translate(332,184)"/>
<path d="" fill="#868686" transform="translate(0,0)"/>
<path d="" fill="#878787" transform="translate(0,0)"/>
<path d="M0 0 C2 1 2 1 2 1 Z " fill="#858585" transform="translate(416,166)"/>
<path d="" fill="#868686" transform="translate(0,0)"/>
<path d="" fill="#868686" transform="translate(0,0)"/>
<path d="M0 0 C2 1 2 1 2 1 Z " fill="#858585" transform="translate(429,155)"/>
<path d="M0 0 C2 1 2 1 2 1 Z " fill="#898989" transform="translate(402,121)"/>
<path d="" fill="#0B0B0B" transform="translate(0,0)"/>
<path d="" fill="#898989" transform="translate(0,0)"/>
<path d="" fill="#858585" transform="translate(0,0)"/>
<path d="" fill="#858585" transform="translate(0,0)"/>
<path d="" fill="#888888" transform="translate(0,0)"/>
<path d="" fill="#828282" transform="translate(0,0)"/>
<path d="" fill="#828282" transform="translate(0,0)"/>
<path d="" fill="#828282" transform="translate(0,0)"/>
<path d="" fill="#828282" transform="translate(0,0)"/>
<path d="" fill="#828282" transform="translate(0,0)"/>
<path d="" fill="#858585" transform="translate(0,0)"/>
<path d="" fill="#858585" transform="translate(0,0)"/>
<path d="" fill="#828282" transform="translate(0,0)"/>
<path d="" fill="#888888" transform="translate(0,0)"/>
<path d="" fill="#888888" transform="translate(0,0)"/>
<path d="" fill="#8C8C8C" transform="translate(0,0)"/>
<path d="" fill="#959595" transform="translate(0,0)"/>
<path d="" fill="#888888" transform="translate(0,0)"/>
<path d="" fill="#858585" transform="translate(0,0)"/>
<path d="" fill="#868686" transform="translate(0,0)"/>
<path d="" fill="#868686" transform="translate(0,0)"/>
<path d="" fill="#858585" transform="translate(0,0)"/>
<path d="" fill="#858585" transform="translate(0,0)"/>
<path d="" fill="#858585" transform="translate(0,0)"/>
<path d="" fill="#858585" transform="translate(0,0)"/>
<path d="" fill="#858585" transform="translate(0,0)"/>
<path d="" fill="#858585" transform="translate(0,0)"/>
<path d="" fill="#858585" transform="translate(0,0)"/>
<path d="" fill="#858585" transform="translate(0,0)"/>
<path d="" fill="#858585" transform="translate(0,0)"/>
<path d="" fill="#858585" transform="translate(0,0)"/>
<path d="" fill="#858585" transform="translate(0,0)"/>
<path d="" fill="#858585" transform="translate(0,0)"/>
<path d="" fill="#858585" transform="translate(0,0)"/>
<path d="" fill="#858585" transform="translate(0,0)"/>
<path d="" fill="#858585" transform="translate(0,0)"/>
<path d="" fill="#858585" transform="translate(0,0)"/>
<path d="" fill="#858585" transform="translate(0,0)"/>
<path d="" fill="#858585" transform="translate(0,0)"/>
<path d="" fill="#858585" transform="translate(0,0)"/>
<path d="" fill="#858585" transform="translate(0,0)"/>
<path d="" fill="#858585" transform="translate(0,0)"/>
<path d="" fill="#858585" transform="translate(0,0)"/>
<path d="" fill="#878787" transform="translate(0,0)"/>
<path d="" fill="#868686" transform="translate(0,0)"/>
<path d="" fill="#878787" transform="translate(0,0)"/>
<path d="" fill="#868686" transform="translate(0,0)"/>
<path d="" fill="#868686" transform="translate(0,0)"/>
<path d="" fill="#858585" transform="translate(0,0)"/>
<path d="" fill="#858585" transform="translate(0,0)"/>
<path d="" fill="#888888" transform="translate(0,0)"/>
<path d="" fill="#898989" transform="translate(0,0)"/>
<path d="" fill="#8B8B8B" transform="translate(0,0)"/>
<path d="" fill="#858585" transform="translate(0,0)"/>
<path d="" fill="#858585" transform="translate(0,0)"/>
<path d="" fill="#868686" transform="translate(0,0)"/>
<path d="" fill="#888888" transform="translate(0,0)"/>
<path d="" fill="#858585" transform="translate(0,0)"/>
<path d="" fill="#878787" transform="translate(0,0)"/>
<path d="" fill="#878787" transform="translate(0,0)"/>
<path d="" fill="#868686" transform="translate(0,0)"/>
<path d="" fill="#878787" transform="translate(0,0)"/>
<path d="" fill="#868686" transform="translate(0,0)"/>
<path d="" fill="#858585" transform="translate(0,0)"/>
<path d="" fill="#858585" transform="translate(0,0)"/>
<path d="" fill="#858585" transform="translate(0,0)"/>
<path d="" fill="#868686" transform="translate(0,0)"/>
<path d="" fill="#8A8A8A" transform="translate(0,0)"/>
<path d="" fill="#868686" transform="translate(0,0)"/>
<path d="" fill="#858585" transform="translate(0,0)"/>
<path d="" fill="#878787" transform="translate(0,0)"/>
<path d="" fill="#888888" transform="translate(0,0)"/>
<path d="" fill="#868686" transform="translate(0,0)"/>
<path d="" fill="#898989" transform="translate(0,0)"/>
<path d="" fill="#878787" transform="translate(0,0)"/>
<path d="" fill="#888888" transform="translate(0,0)"/>
<path d="" fill="#858585" transform="translate(0,0)"/>
<path d="" fill="#858585" transform="translate(0,0)"/>
<path d="" fill="#8C8C8C" transform="translate(0,0)"/>
<path d="" fill="#878787" transform="translate(0,0)"/>
<path d="" fill="#868686" transform="translate(0,0)"/>
<path d="" fill="#8B8B8B" transform="translate(0,0)"/>
<path d="" fill="#858585" transform="translate(0,0)"/>
<path d="" fill="#868686" transform="translate(0,0)"/>
<path d="" fill="#858585" transform="translate(0,0)"/>
<path d="" fill="#898989" transform="translate(0,0)"/>
<path d="" fill="#868686" transform="translate(0,0)"/>
<path d="" fill="#868686" transform="translate(0,0)"/>
<path d="" fill="#888888" transform="translate(0,0)"/>
<path d="" fill="#878787" transform="translate(0,0)"/>
<path d="" fill="#868686" transform="translate(0,0)"/>
<path d="" fill="#8B8B8B" transform="translate(0,0)"/>
<path d="" fill="#888888" transform="translate(0,0)"/>
<path d="" fill="#858585" transform="translate(0,0)"/>
<path d="" fill="#888888" transform="translate(0,0)"/>
<path d="" fill="#8C8C8C" transform="translate(0,0)"/>
<path d="" fill="#8B8B8B" transform="translate(0,0)"/>
<path d="" fill="#868686" transform="translate(0,0)"/>
<path d="" fill="#898989" transform="translate(0,0)"/>
<path d="" fill="#858585" transform="translate(0,0)"/>
<path d="" fill="#898989" transform="translate(0,0)"/>
<path d="" fill="#858585" transform="translate(0,0)"/>
<path d="" fill="#868686" transform="translate(0,0)"/>
<path d="" fill="#858585" transform="translate(0,0)"/>
<path d="" fill="#898989" transform="translate(0,0)"/>
<path d="" fill="#868686" transform="translate(0,0)"/>
<path d="" fill="#868686" transform="translate(0,0)"/>
<path d="" fill="#868686" transform="translate(0,0)"/>
<path d="" fill="#8A8A8A" transform="translate(0,0)"/>
<path d="" fill="#8A8A8A" transform="translate(0,0)"/>
<path d="" fill="#858585" transform="translate(0,0)"/>
<path d="" fill="#878787" transform="translate(0,0)"/>
<path d="" fill="#878787" transform="translate(0,0)"/>
<path d="" fill="#868686" transform="translate(0,0)"/>
<path d="" fill="#8B8B8B" transform="translate(0,0)"/>
<path d="" fill="#8B8B8B" transform="translate(0,0)"/>
<path d="" fill="#898989" transform="translate(0,0)"/>
<path d="" fill="#858585" transform="translate(0,0)"/>
<path d="" fill="#8B8B8B" transform="translate(0,0)"/>
<path d="" fill="#858585" transform="translate(0,0)"/>
<path d="" fill="#8C8C8C" transform="translate(0,0)"/>
<path d="" fill="#868686" transform="translate(0,0)"/>
<path d="" fill="#898989" transform="translate(0,0)"/>
<path d="" fill="#878787" transform="translate(0,0)"/>
<path d="" fill="#8F8F8F" transform="translate(0,0)"/>
<path d="" fill="#858585" transform="translate(0,0)"/>
<path d="" fill="#8D8D8D" transform="translate(0,0)"/>
<path d="" fill="#8F8F8F" transform="translate(0,0)"/>
<path d="" fill="#898989" transform="translate(0,0)"/>
<path d="" fill="#888888" transform="translate(0,0)"/>
<path d="" fill="#888888" transform="translate(0,0)"/>
<path d="" fill="#8F8F8F" transform="translate(0,0)"/>
<path d="" fill="#858585" transform="translate(0,0)"/>
<path d="" fill="#868686" transform="translate(0,0)"/>
<path d="" fill="#898989" transform="translate(0,0)"/>
<path d="" fill="#888888" transform="translate(0,0)"/>
<path d="" fill="#898989" transform="translate(0,0)"/>
<path d="" fill="#898989" transform="translate(0,0)"/>
<path d="" fill="#878787" transform="translate(0,0)"/>
<path d="" fill="#8B8B8B" transform="translate(0,0)"/>
<path d="" fill="#858585" transform="translate(0,0)"/>
<path d="" fill="#868686" transform="translate(0,0)"/>
<path d="" fill="#898989" transform="translate(0,0)"/>
<path d="" fill="#858585" transform="translate(0,0)"/>
<path d="" fill="#898989" transform="translate(0,0)"/>
<path d="" fill="#8D8D8D" transform="translate(0,0)"/>
<path d="" fill="#868686" transform="translate(0,0)"/>
<path d="" fill="#888888" transform="translate(0,0)"/>
<path d="" fill="#858585" transform="translate(0,0)"/>
<path d="" fill="#8C8C8C" transform="translate(0,0)"/>
<path d="" fill="#868686" transform="translate(0,0)"/>
<path d="" fill="#888888" transform="translate(0,0)"/>
<path d="" fill="#8A8A8A" transform="translate(0,0)"/>
<path d="" fill="#888888" transform="translate(0,0)"/>
<path d="" fill="#888888" transform="translate(0,0)"/>
<path d="" fill="#878787" transform="translate(0,0)"/>
<path d="" fill="#888888" transform="translate(0,0)"/>
<path d="" fill="#878787" transform="translate(0,0)"/>
<path d="" fill="#8A8A8A" transform="translate(0,0)"/>
<path d="" fill="#888888" transform="translate(0,0)"/>
<path d="" fill="#868686" transform="translate(0,0)"/>
<path d="" fill="#858585" transform="translate(0,0)"/>
<path d="" fill="#888888" transform="translate(0,0)"/>
<path d="" fill="#878787" transform="translate(0,0)"/>
<path d="" fill="#878787" transform="translate(0,0)"/>
<path d="" fill="#868686" transform="translate(0,0)"/>
<path d="" fill="#858585" transform="translate(0,0)"/>
<path d="" fill="#868686" transform="translate(0,0)"/>
<path d="" fill="#8B8B8B" transform="translate(0,0)"/>
<path d="" fill="#858585" transform="translate(0,0)"/>
<path d="" fill="#8D8D8D" transform="translate(0,0)"/>
<path d="" fill="#888888" transform="translate(0,0)"/>
<path d="" fill="#868686" transform="translate(0,0)"/>
<path d="" fill="#8B8B8B" transform="translate(0,0)"/>
<path d="" fill="#898989" transform="translate(0,0)"/>
<path d="" fill="#888888" transform="translate(0,0)"/>
<path d="" fill="#888888" transform="translate(0,0)"/>
<path d="" fill="#898989" transform="translate(0,0)"/>
<path d="" fill="#898989" transform="translate(0,0)"/>
<path d="" fill="#898989" transform="translate(0,0)"/>
<path d="" fill="#888888" transform="translate(0,0)"/>
<path d="" fill="#858585" transform="translate(0,0)"/>
<path d="" fill="#878787" transform="translate(0,0)"/>
<path d="" fill="#8B8B8B" transform="translate(0,0)"/>
<path d="" fill="#878787" transform="translate(0,0)"/>
<path d="" fill="#858585" transform="translate(0,0)"/>
<path d="" fill="#898989" transform="translate(0,0)"/>
<path d="" fill="#858585" transform="translate(0,0)"/>
<path d="" fill="#888888" transform="translate(0,0)"/>
<path d="" fill="#858585" transform="translate(0,0)"/>
<path d="" fill="#898989" transform="translate(0,0)"/>
<path d="" fill="#8A8A8A" transform="translate(0,0)"/>
<path d="" fill="#8A8A8A" transform="translate(0,0)"/>
<path d="" fill="#878787" transform="translate(0,0)"/>
<path d="" fill="#858585" transform="translate(0,0)"/>
<path d="" fill="#898989" transform="translate(0,0)"/>
<path d="" fill="#868686" transform="translate(0,0)"/>
<path d="" fill="#858585" transform="translate(0,0)"/>
<path d="" fill="#858585" transform="translate(0,0)"/>
<path d="" fill="#888888" transform="translate(0,0)"/>
<path d="" fill="#898989" transform="translate(0,0)"/>
<path d="" fill="#8F8F8F" transform="translate(0,0)"/>
<path d="" fill="#888888" transform="translate(0,0)"/>
<path d="" fill="#878787" transform="translate(0,0)"/>
<path d="" fill="#858585" transform="translate(0,0)"/>
<path d="" fill="#868686" transform="translate(0,0)"/>
<path d="" fill="#858585" transform="translate(0,0)"/>
<path d="" fill="#8A8A8A" transform="translate(0,0)"/>
<path d="" fill="#868686" transform="translate(0,0)"/>
<path d="" fill="#8A8A8A" transform="translate(0,0)"/>
<path d="" fill="#8C8C8C" transform="translate(0,0)"/>
<path d="" fill="#868686" transform="translate(0,0)"/>
<path d="" fill="#858585" transform="translate(0,0)"/>
<path d="" fill="#8C8C8C" transform="translate(0,0)"/>
<path d="" fill="#878787" transform="translate(0,0)"/>
<path d="" fill="#888888" transform="translate(0,0)"/>
<path d="" fill="#8B8B8B" transform="translate(0,0)"/>
<path d="" fill="#878787" transform="translate(0,0)"/>
<path d="" fill="#8F8F8F" transform="translate(0,0)"/>
<path d="" fill="#8A8A8A" transform="translate(0,0)"/>
<path d="" fill="#898989" transform="translate(0,0)"/>
<path d="" fill="#8D8D8D" transform="translate(0,0)"/>
<path d="" fill="#898989" transform="translate(0,0)"/>
<path d="" fill="#8A8A8A" transform="translate(0,0)"/>
<path d="" fill="#888888" transform="translate(0,0)"/>
<path d="" fill="#898989" transform="translate(0,0)"/>
<path d="" fill="#8A8A8A" transform="translate(0,0)"/>
<path d="" fill="#8D8D8D" transform="translate(0,0)"/>
<path d="" fill="#888888" transform="translate(0,0)"/>
<path d="" fill="#898989" transform="translate(0,0)"/>
<path d="" fill="#8D8D8D" transform="translate(0,0)"/>
<path d="" fill="#878787" transform="translate(0,0)"/>
<path d="" fill="#8A8A8A" transform="translate(0,0)"/>
<path d="" fill="#8A8A8A" transform="translate(0,0)"/>
<path d="" fill="#888888" transform="translate(0,0)"/>
<path d="" fill="#868686" transform="translate(0,0)"/>
<path d="" fill="#858585" transform="translate(0,0)"/>
<path d="" fill="#858585" transform="translate(0,0)"/>
<path d="" fill="#858585" transform="translate(0,0)"/>
<path d="" fill="#858585" transform="translate(0,0)"/>
<path d="" fill="#878787" transform="translate(0,0)"/>
<path d="" fill="#878787" transform="translate(0,0)"/>
<path d="" fill="#868686" transform="translate(0,0)"/>
<path d="" fill="#898989" transform="translate(0,0)"/>
<path d="" fill="#8C8C8C" transform="translate(0,0)"/>
<path d="" fill="#8B8B8B" transform="translate(0,0)"/>
<path d="" fill="#888888" transform="translate(0,0)"/>
<path d="" fill="#898989" transform="translate(0,0)"/>
<path d="" fill="#868686" transform="translate(0,0)"/>
<path d="" fill="#909090" transform="translate(0,0)"/>
<path d="" fill="#898989" transform="translate(0,0)"/>
<path d="" fill="#888888" transform="translate(0,0)"/>
<path d="" fill="#8A8A8A" transform="translate(0,0)"/>
<path d="" fill="#8D8D8D" transform="translate(0,0)"/>
<path d="" fill="#8D8D8D" transform="translate(0,0)"/>
<path d="" fill="#888888" transform="translate(0,0)"/>
<path d="" fill="#8B8B8B" transform="translate(0,0)"/>
<path d="" fill="#8B8B8B" transform="translate(0,0)"/>
<path d="" fill="#858585" transform="translate(0,0)"/>
<path d="" fill="#888888" transform="translate(0,0)"/>
<path d="" fill="#8B8B8B" transform="translate(0,0)"/>
<path d="" fill="#878787" transform="translate(0,0)"/>
<path d="" fill="#868686" transform="translate(0,0)"/>
<path d="" fill="#868686" transform="translate(0,0)"/>
<path d="" fill="#858585" transform="translate(0,0)"/>
<path d="" fill="#858585" transform="translate(0,0)"/>
<path d="" fill="#919191" transform="translate(0,0)"/>
<path d="" fill="#888888" transform="translate(0,0)"/>
<path d="" fill="#888888" transform="translate(0,0)"/>
<path d="" fill="#888888" transform="translate(0,0)"/>
<path d="" fill="#888888" transform="translate(0,0)"/>
<path d="" fill="#868686" transform="translate(0,0)"/>
<path d="" fill="#8E8E8E" transform="translate(0,0)"/>
<path d="" fill="#858585" transform="translate(0,0)"/>
<path d="" fill="#8C8C8C" transform="translate(0,0)"/>
<path d="" fill="#868686" transform="translate(0,0)"/>
<path d="" fill="#878787" transform="translate(0,0)"/>
<path d="" fill="#888888" transform="translate(0,0)"/>
<path d="" fill="#898989" transform="translate(0,0)"/>
<path d="" fill="#878787" transform="translate(0,0)"/>
<path d="" fill="#888888" transform="translate(0,0)"/>
<path d="" fill="#8B8B8B" transform="translate(0,0)"/>
<path d="" fill="#8C8C8C" transform="translate(0,0)"/>
<path d="" fill="#858585" transform="translate(0,0)"/>
<path d="" fill="#878787" transform="translate(0,0)"/>
<path d="" fill="#888888" transform="translate(0,0)"/>
<path d="" fill="#8A8A8A" transform="translate(0,0)"/>
<path d="" fill="#868686" transform="translate(0,0)"/>
<path d="" fill="#2A2A2A" transform="translate(0,0)"/>
<path d="" fill="#898989" transform="translate(0,0)"/>
<path d="" fill="#444444" transform="translate(0,0)"/>
<path d="" fill="#8A8A8A" transform="translate(0,0)"/>
<path d="" fill="#898989" transform="translate(0,0)"/>
<path d="" fill="#858585" transform="translate(0,0)"/>
<path d="" fill="#898989" transform="translate(0,0)"/>
<path d="" fill="#868686" transform="translate(0,0)"/>
<path d="" fill="#878787" transform="translate(0,0)"/>
<path d="" fill="#0F0F0F" transform="translate(0,0)"/>
<path d="" fill="#878787" transform="translate(0,0)"/>
<path d="" fill="#8A8A8A" transform="translate(0,0)"/>
<path d="" fill="#0D0D0D" transform="translate(0,0)"/>
<path d="" fill="#0B0B0B" transform="translate(0,0)"/>
<path d="" fill="#858585" transform="translate(0,0)"/>
<path d="" fill="#8A8A8A" transform="translate(0,0)"/>
<path d="" fill="#0B0B0B" transform="translate(0,0)"/>
<path d="" fill="#8C8C8C" transform="translate(0,0)"/>
<path d="" fill="#8B8B8B" transform="translate(0,0)"/>
<path d="" fill="#8F8F8F" transform="translate(0,0)"/>
<path d="" fill="#8A8A8A" transform="translate(0,0)"/>
<path d="" fill="#888888" transform="translate(0,0)"/>
<path d="" fill="#888888" transform="translate(0,0)"/>
<path d="" fill="#868686" transform="translate(0,0)"/>
<path d="" fill="#8B8B8B" transform="translate(0,0)"/>
<path d="" fill="#898989" transform="translate(0,0)"/>
<path d="" fill="#8A8A8A" transform="translate(0,0)"/>
<path d="" fill="#868686" transform="translate(0,0)"/>
<path d="" fill="#888888" transform="translate(0,0)"/>
<path d="" fill="#888888" transform="translate(0,0)"/>
<path d="" fill="#8A8A8A" transform="translate(0,0)"/>
<path d="" fill="#868686" transform="translate(0,0)"/>
<path d="" fill="#878787" transform="translate(0,0)"/>
<path d="" fill="#8B8B8B" transform="translate(0,0)"/>
<path d="" fill="#909090" transform="translate(0,0)"/>
<path d="" fill="#898989" transform="translate(0,0)"/>
<path d="" fill="#8B8B8B" transform="translate(0,0)"/>
<path d="" fill="#888888" transform="translate(0,0)"/>
<path d="" fill="#858585" transform="translate(0,0)"/>
<path d="" fill="#8A8A8A" transform="translate(0,0)"/>
<path d="" fill="#898989" transform="translate(0,0)"/>
<path d="" fill="#0B0B0B" transform="translate(0,0)"/>
<path d="" fill="#8B8B8B" transform="translate(0,0)"/>
<path d="" fill="#919191" transform="translate(0,0)"/>
<path d="" fill="#898989" transform="translate(0,0)"/>
<path d="" fill="#8D8D8D" transform="translate(0,0)"/>
<path d="" fill="#858585" transform="translate(0,0)"/>
<path d="" fill="#272727" transform="translate(0,0)"/>
<path d="" fill="#868686" transform="translate(0,0)"/>
<path d="" fill="#8A8A8A" transform="translate(0,0)"/>
<path d="" fill="#909090" transform="translate(0,0)"/>
<path d="" fill="#8A8A8A" transform="translate(0,0)"/>
<path d="" fill="#868686" transform="translate(0,0)"/>
<path d="" fill="#858585" transform="translate(0,0)"/>
<path d="" fill="#878787" transform="translate(0,0)"/>
<path d="" fill="#0F0F0F" transform="translate(0,0)"/>
<path d="" fill="#888888" transform="translate(0,0)"/>
<path d="" fill="#8A8A8A" transform="translate(0,0)"/>
<path d="" fill="#1A1A1A" transform="translate(0,0)"/>
<path d="" fill="#0D0D0D" transform="translate(0,0)"/>
<path d="" fill="#8B8B8B" transform="translate(0,0)"/>
<path d="" fill="#858585" transform="translate(0,0)"/>
<path d="" fill="#0B0B0B" transform="translate(0,0)"/>
<path d="" fill="#0F0F0F" transform="translate(0,0)"/>
<path d="" fill="#898989" transform="translate(0,0)"/>
<path d="" fill="#8A8A8A" transform="translate(0,0)"/>
<path d="" fill="#878787" transform="translate(0,0)"/>
<path d="" fill="#868686" transform="translate(0,0)"/>
<path d="" fill="#0D0D0D" transform="translate(0,0)"/>
<path d="" fill="#919191" transform="translate(0,0)"/>
<path d="" fill="#2C2C2C" transform="translate(0,0)"/>
<path d="" fill="#1A1A1A" transform="translate(0,0)"/>
<path d="" fill="#868686" transform="translate(0,0)"/>
<path d="" fill="#858585" transform="translate(0,0)"/>
<path d="" fill="#858585" transform="translate(0,0)"/>
<path d="" fill="#121212" transform="translate(0,0)"/>
<path d="" fill="#868686" transform="translate(0,0)"/>
<path d="" fill="#888888" transform="translate(0,0)"/>
<path d="" fill="#888888" transform="translate(0,0)"/>
<path d="" fill="#878787" transform="translate(0,0)"/>
<path d="" fill="#888888" transform="translate(0,0)"/>
<path d="" fill="#0F0F0F" transform="translate(0,0)"/>
<path d="" fill="#8A8A8A" transform="translate(0,0)"/>
<path d="" fill="#868686" transform="translate(0,0)"/>
<path d="" fill="#888888" transform="translate(0,0)"/>
<path d="" fill="#8D8D8D" transform="translate(0,0)"/>
<path d="" fill="#0F0F0F" transform="translate(0,0)"/>
<path d="" fill="#868686" transform="translate(0,0)"/>
<path d="" fill="#858585" transform="translate(0,0)"/>
<path d="" fill="#121212" transform="translate(0,0)"/>
<path d="" fill="#888888" transform="translate(0,0)"/>
<path d="" fill="#878787" transform="translate(0,0)"/>
<path d="" fill="#0D0D0D" transform="translate(0,0)"/>
<path d="" fill="#141414" transform="translate(0,0)"/>
<path d="" fill="#858585" transform="translate(0,0)"/>
<path d="" fill="#8A8A8A" transform="translate(0,0)"/>
<path d="" fill="#8B8B8B" transform="translate(0,0)"/>
<path d="" fill="#0B0B0B" transform="translate(0,0)"/>
<path d="" fill="#0D0D0D" transform="translate(0,0)"/>
<path d="" fill="#868686" transform="translate(0,0)"/>
<path d="" fill="#878787" transform="translate(0,0)"/>
<path d="" fill="#0D0D0D" transform="translate(0,0)"/>
<path d="" fill="#858585" transform="translate(0,0)"/>
<path d="" fill="#858585" transform="translate(0,0)"/>
<path d="" fill="#121212" transform="translate(0,0)"/>
<path d="" fill="#878787" transform="translate(0,0)"/>
<path d="" fill="#858585" transform="translate(0,0)"/>
<path d="" fill="#0D0D0D" transform="translate(0,0)"/>
<path d="" fill="#8E8E8E" transform="translate(0,0)"/>
<path d="" fill="#858585" transform="translate(0,0)"/>
<path d="" fill="#858585" transform="translate(0,0)"/>
<path d="" fill="#858585" transform="translate(0,0)"/>
<path d="" fill="#868686" transform="translate(0,0)"/>
<path d="" fill="#8C8C8C" transform="translate(0,0)"/>
<path d="" fill="#868686" transform="translate(0,0)"/>
<path d="" fill="#0B0B0B" transform="translate(0,0)"/>
<path d="" fill="#878787" transform="translate(0,0)"/>
<path d="" fill="#0D0D0D" transform="translate(0,0)"/>
<path d="" fill="#0F0F0F" transform="translate(0,0)"/>
<path d="" fill="#878787" transform="translate(0,0)"/>
<path d="" fill="#0D0D0D" transform="translate(0,0)"/>
<path d="" fill="#868686" transform="translate(0,0)"/>
<path d="" fill="#0B0B0B" transform="translate(0,0)"/>
<path d="" fill="#0F0F0F" transform="translate(0,0)"/>
<path d="" fill="#0B0B0B" transform="translate(0,0)"/>
<path d="" fill="#8A8A8A" transform="translate(0,0)"/>
<path d="" fill="#878787" transform="translate(0,0)"/>
<path d="" fill="#898989" transform="translate(0,0)"/>
<path d="" fill="#121212" transform="translate(0,0)"/>
<path d="" fill="#0B0B0B" transform="translate(0,0)"/>
<path d="" fill="#858585" transform="translate(0,0)"/>
<path d="" fill="#868686" transform="translate(0,0)"/>
<path d="" fill="#878787" transform="translate(0,0)"/>
<path d="" fill="#858585" transform="translate(0,0)"/>
<path d="" fill="#868686" transform="translate(0,0)"/>
<path d="" fill="#858585" transform="translate(0,0)"/>
<path d="" fill="#878787" transform="translate(0,0)"/>
<path d="" fill="#858585" transform="translate(0,0)"/>
<path d="" fill="#898989" transform="translate(0,0)"/>
<path d="" fill="#0B0B0B" transform="translate(0,0)"/>
<path d="" fill="#141414" transform="translate(0,0)"/>
<path d="" fill="#858585" transform="translate(0,0)"/>
<path d="" fill="#858585" transform="translate(0,0)"/>
<path d="" fill="#0D0D0D" transform="translate(0,0)"/>
<path d="" fill="#858585" transform="translate(0,0)"/>
<path d="" fill="#0D0D0D" transform="translate(0,0)"/>
<path d="" fill="#0B0B0B" transform="translate(0,0)"/>
</svg>
