<?xml version="1.0" encoding="UTF-8"?>
<svg version="1.1" xmlns="http://www.w3.org/2000/svg" width="736" height="736">
<path d="M0 0 C0.80140411 -0.00067474 1.60280823 -0.00134949 2.42849731 -0.00204468 C15.42846479 0.01530483 28.03673389 0.66433898 40.8125 3.25 C41.6885791 3.42692383 42.5646582 3.60384766 43.46728516 3.78613281 C80.2506536 11.46508372 130.98216086 30.50449128 152.8125 63.25 C152.11906998 63.94179352 151.42563995 64.63358704 150.7111969 65.34634399 C147.60449582 68.45319397 144.51893536 71.58069764 141.43334961 74.70849609 C135.15818332 81.06514345 128.8704655 87.40922038 122.57540035 93.74616051 C118.77139139 97.57637497 114.9722403 101.41117276 111.18334961 105.25634766 C107.51209394 108.98177245 103.82889544 112.69498865 100.1369648 116.39992142 C98.73191595 117.81422463 97.33128296 119.23292873 95.93513298 120.6560173 C93.98889571 122.63835003 92.02777327 124.60468042 90.06225586 126.56787109 C89.48604492 127.16205841 88.90983398 127.75624573 88.31616211 128.36843872 C86.68955994 129.97421265 86.68955994 129.97421265 83.8125 132.25 C79.67811444 131.77062007 77.54365218 129.47792063 74.5 126.75 C51.73130757 107.09612713 21.61246273 98.48926523 -8.1875 100.25 C-38.50352518 103.15924501 -67.10059078 117.05801946 -86.9453125 140.4140625 C-108.51491255 166.94629234 -115.9774082 197.89041959 -112.97216797 231.67041016 C-112.43462917 235.99010053 -111.42284017 240.08247505 -110.1875 244.25 C-109.98882324 244.94706055 -109.79014648 245.64412109 -109.58544922 246.36230469 C-105.09524915 261.89469712 -98.49518456 275.00931327 -88.2890625 287.54296875 C-86.5698543 289.75748787 -85.29691749 291.6959015 -84.1875 294.25 C-83.5275 294.25 -82.8675 294.25 -82.1875 294.25 C-81.0393739 295.3633344 -79.89803452 296.48424426 -78.78515625 297.6328125 C-58.98182105 317.67824226 -31.04027379 329.27829292 -2.92431641 329.63037109 C26.58466842 329.58723504 51.23348056 323.27356453 73.8125 303.25 C74.50988281 302.63640625 75.20726562 302.0228125 75.92578125 301.390625 C86.64999162 291.33264814 92.5969492 279.56903743 98.8125 266.25 C63.5025 266.25 28.1925 266.25 -8.1875 266.25 C-8.1875 234.57 -8.1875 202.89 -8.1875 170.25 C61.4425 170.25 131.0725 170.25 202.8125 170.25 C207.42939255 193.33446273 207.42939255 193.33446273 208.0625 203.3125 C208.13984375 204.32248047 208.2171875 205.33246094 208.296875 206.37304688 C212.39781268 263.31017275 195.27864901 322.28305381 158.375 366.0625 C157.86654541 366.66819824 157.35809082 367.27389648 156.83422852 367.89794922 C153.17888334 372.12787222 153.17888334 372.12787222 149.8125 373.25 C149.14348695 374.58215756 148.47729335 375.91573165 147.8125 377.25 C140.42547536 385.0474149 131.69399953 391.2853029 122.8125 397.25 C121.80832031 397.92804688 120.80414063 398.60609375 119.76953125 399.3046875 C93.13601973 416.46314641 61.29636762 426.44316755 29.8125 429.25 C28.8853418 429.33467529 27.95818359 429.41935059 27.00292969 429.5065918 C-31.50502967 434.48853656 -90.27756906 419.66111742 -135.6875 381.4140625 C-136.5125 380.69992187 -137.3375 379.98578125 -138.1875 379.25 C-138.991875 378.55648438 -139.79625 377.86296875 -140.625 377.1484375 C-152.37409669 366.79266318 -162.86769498 355.83625713 -172.1875 343.25 C-172.81011719 342.42242187 -173.43273437 341.59484375 -174.07421875 340.7421875 C-207.67190663 294.53557712 -220.18007906 236.64253626 -211.73095703 180.50244141 C-207.84215856 157.22904825 -200.44640092 134.9786582 -189.1875 114.25 C-188.83574707 113.58806641 -188.48399414 112.92613281 -188.12158203 112.24414062 C-180.10902052 97.19132844 -170.38643119 84.06785269 -159.1875 71.25 C-158.39472656 70.321875 -157.60195312 69.39375 -156.78515625 68.4375 C-156.07230469 67.6125 -155.35945313 66.7875 -154.625 65.9375 C-154.00496094 65.21949219 -153.38492188 64.50148438 -152.74609375 63.76171875 C-151.1875 62.25 -151.1875 62.25 -149.1875 62.25 C-148.8575 61.26 -148.5275 60.27 -148.1875 59.25 C-145.75798923 56.6695433 -142.91728707 54.50417263 -140.1875 52.25 C-139.67912598 51.82009766 -139.17075195 51.39019531 -138.64697266 50.94726562 C-106.27821162 23.61915062 -67.91690227 7.5079244 -26.1875 1.25 C-25.18046021 1.09313721 -25.18046021 1.09313721 -24.15307617 0.93310547 C-16.15949863 -0.14064434 -8.05092567 0.00608972 0 0 Z " fill="#FEFEFE" transform="translate(368.1875,152.75)"/>
</svg>
