<?xml version="1.0" encoding="UTF-8"?>
<svg version="1.1" xmlns="http://www.w3.org/2000/svg" width="464" height="173">
<path d="M0 0 C1.27149399 -0.0127597 2.54298798 -0.02551941 3.85301208 -0.03866577 C5.24713998 -0.04172298 6.64126991 -0.04395098 8.03540039 -0.04541016 C9.46025224 -0.05183456 10.88510274 -0.05856265 12.30995178 -0.06558228 C15.29846252 -0.07756706 18.28685755 -0.08126186 21.27539062 -0.08007812 C25.10693105 -0.07987482 28.93773066 -0.10718204 32.76909542 -0.14162254 C35.71248285 -0.16384837 38.65569075 -0.16791702 41.59915352 -0.16685867 C43.01178098 -0.16922097 44.42441292 -0.17807988 45.83695793 -0.19352341 C47.81178133 -0.21309291 49.7868214 -0.20484617 51.76171875 -0.1953125 C52.88597763 -0.19816254 54.01023651 -0.20101257 55.16856384 -0.20394897 C57.94555664 0.29052734 57.94555664 0.29052734 59.80778503 1.90060425 C61.31607866 5.06881987 61.32678876 7.5060769 61.33374023 11.01513672 C61.33899719 11.68229202 61.34425415 12.34944733 61.34967041 13.03681946 C61.36284525 15.23621214 61.3541419 17.43487764 61.34399414 19.63427734 C61.34601562 21.16597634 61.34892767 22.69767441 61.35269165 24.22937012 C61.35711157 27.43718645 61.35069485 30.64475192 61.33666992 33.85253906 C61.31957797 37.96182982 61.32942097 42.07053275 61.34738731 46.17980194 C61.35823427 49.34198425 61.35477468 52.50402747 61.34700394 55.66621399 C61.34500444 57.18125986 61.34745243 58.69631842 61.3544426 60.21134949 C61.36207239 62.32987863 61.35043297 64.44745937 61.33374023 66.56591797 C61.33135345 67.77074829 61.32896667 68.97557861 61.32650757 70.21691895 C60.90429889 73.62340532 60.54305433 75.04473888 57.94555664 77.29052734 C55.16856384 77.78500366 55.16856384 77.78500366 51.76171875 77.77636719 C50.4870726 77.78252045 49.21242645 77.78867371 47.89915466 77.79501343 C46.50706257 77.78121849 45.11497763 77.7666846 43.72290039 77.75146484 C42.29708523 77.74908049 40.87126689 77.74817508 39.44544983 77.74868774 C36.4585501 77.7455601 33.47213052 77.72899688 30.48535156 77.70214844 C26.6527946 77.66813738 22.82076451 77.6605207 18.9880743 77.6620388 C16.04471284 77.66149556 13.10146704 77.65053642 10.158144 77.63603592 C8.74472491 77.62966306 7.33129271 77.62572788 5.91786003 77.6242485 C3.94519222 77.6199226 1.97257323 77.60084987 0 77.58105469 C-1.12346329 77.57343109 -2.24692657 77.5658075 -3.4044342 77.55795288 C-6.05444336 77.29052734 -6.05444336 77.29052734 -8.05444336 75.29052734 C-8.30841064 72.29211426 -8.30841064 72.29211426 -8.31323242 68.39404297 C-8.31673706 67.68495285 -8.3202417 66.97586273 -8.32385254 66.24528503 C-8.33267257 63.8956836 -8.32681988 61.54638198 -8.32006836 59.19677734 C-8.32141494 57.56774843 -8.3233554 55.93871991 -8.3258667 54.30969238 C-8.32881832 50.89327168 -8.32451913 47.47695545 -8.31518555 44.06054688 C-8.30379094 39.67535333 -8.31035021 35.29040459 -8.32233047 30.90522003 C-8.32954807 27.54069159 -8.32726162 24.17622145 -8.32207489 20.81169128 C-8.32073811 19.19451366 -8.3223871 17.5773308 -8.327034 15.9601593 C-8.33209764 13.70230025 -8.32439162 11.4448409 -8.31323242 9.18701172 C-8.31164124 7.90064819 -8.31005005 6.61428467 -8.30841064 5.28894043 C-7.83013926 -0.35767333 -4.92041809 0.03338897 0 0 Z M8.94555664 11.29052734 C8.86394844 13.66623277 8.80478442 16.03908575 8.75805664 18.41552734 C8.73291992 19.08068359 8.7077832 19.74583984 8.68188477 20.43115234 C8.6122128 25.16884572 9.45077753 28.27641593 11.94555664 32.29052734 C17.77873674 37.5546167 21.78290475 37.64703468 29.51586914 37.56005859 C33.85411261 37.21912602 35.93325895 36.46136702 38.94555664 33.29052734 C44.13942369 26.74888467 43.34858367 19.2615064 42.94555664 11.29052734 C41.29555664 11.29052734 39.64555664 11.29052734 37.94555664 11.29052734 C37.90817383 12.18255859 37.87079102 13.07458984 37.83227539 13.99365234 C37.7665332 15.16412109 37.70079102 16.33458984 37.63305664 17.54052734 C37.57504883 18.70068359 37.51704102 19.86083984 37.45727539 21.05615234 C36.92138159 24.44332844 36.12553786 25.74234555 33.94555664 28.29052734 C33.94555664 28.95052734 33.94555664 29.61052734 33.94555664 30.29052734 C29.31880639 31.74884545 25.93442053 32.51747971 21.13305664 31.41552734 C16.96844566 28.63912002 15.38747092 26.0361683 13.94555664 21.29052734 C13.3862355 17.95830054 13.08386129 14.66516068 12.94555664 11.29052734 C11.62555664 11.29052734 10.30555664 11.29052734 8.94555664 11.29052734 Z " fill="#599BD1" transform="translate(182.054443359375,42.70947265625)"/>
<path d="M0 0 C1.051875 0.78375 2.10375 1.5675 3.1875 2.375 C3.1875 3.035 3.1875 3.695 3.1875 4.375 C4.06728516 4.72691406 4.06728516 4.72691406 4.96484375 5.0859375 C10.73840625 8.43440081 14.68263753 16.15221281 16.69140625 22.390625 C19.36067316 33.06769263 17.81011851 43.84632564 12.1875 53.375 C5.64251099 62.43473033 -2.81118901 68.90728738 -13.8125 71.375 C-26.42848224 72.83278628 -36.01055436 70.16474918 -46.1875 62.6875 C-54.02906752 55.99132998 -59.17000181 46.54063957 -60.09375 36.23828125 C-60.45417327 23.30809634 -56.40127554 14.05195626 -47.625 4.6875 C-34.0436146 -8.3975557 -16.07240951 -9.63772599 0 0 Z M-43.8125 13.375 C-47.16413578 18.00423951 -49.45224673 22.61094768 -49.8125 28.375 C-49.88791016 29.37273437 -49.88791016 29.37273437 -49.96484375 30.390625 C-50.22544703 36.35322816 -49.21742518 41.89216646 -46.8125 47.375 C-45.83130387 48.39345675 -44.83280505 49.39572598 -43.8125 50.375 C-43.4825 51.365 -43.1525 52.355 -42.8125 53.375 C-40.93482212 54.98642624 -40.93482212 54.98642624 -38.625 56.4375 C-37.86832031 56.94410156 -37.11164063 57.45070312 -36.33203125 57.97265625 C-28.9241589 62.0957976 -20.72609641 62.54982132 -12.47265625 60.91015625 C-10.4418358 60.23053515 -8.68315196 59.4160238 -6.8125 58.375 C-6.13574219 58.00761719 -5.45898438 57.64023438 -4.76171875 57.26171875 C1.60977096 53.19404453 4.95752744 47.5125399 7.1875 40.375 C8.30925302 31.91007915 8.10117618 24.50665502 3.1875 17.375 C2.32125 15.7971875 2.32125 15.7971875 1.4375 14.1875 C-2.80363094 8.88608633 -8.33888957 6.18664471 -14.8125 4.375 C-26.24503738 3.2828097 -35.4908315 5.16001955 -43.8125 13.375 Z " fill="#89D8E3" transform="translate(424.8125,48.625)"/>
<path d="M0 0 C1.134375 0.020625 2.26875 0.04125 3.4375 0.0625 C6.92516171 7.29332977 10.08091575 14.56436264 12.9375 22.0625 C14.89305207 27.18600395 16.9021281 32.22720726 19.25 37.1875 C22.26462748 43.57818168 25.05641846 50.05638784 27.8125 56.5625 C28.49276245 58.1405542 28.49276245 58.1405542 29.18676758 59.75048828 C29.60724365 60.75063965 30.02771973 61.75079102 30.4609375 62.78125 C30.84169434 63.67779297 31.22245117 64.57433594 31.61474609 65.49804688 C32.49410955 68.2389471 32.82441525 70.20770933 32.4375 73.0625 C29.4375 75.0625 29.4375 75.0625 26.5625 75.3125 C22.1698981 73.55545924 21.34528205 70.86961459 19.41796875 66.703125 C18.4375 64.0625 18.4375 64.0625 17.4375 59.0625 C6.2175 59.3925 -5.0025 59.7225 -16.5625 60.0625 C-18.8725 64.3525 -21.1825 68.6425 -23.5625 73.0625 C-25.5625 75.0625 -25.5625 75.0625 -28.0625 75.375 C-28.8875 75.271875 -29.7125 75.16875 -30.5625 75.0625 C-32.5625 72.0625 -32.5625 72.0625 -32.31933594 69.22924805 C-31.58046581 66.13767242 -30.64233054 63.34019838 -29.453125 60.39453125 C-29.02773437 59.33556641 -28.60234375 58.27660156 -28.1640625 57.18554688 C-27.71804687 56.09306641 -27.27203125 55.00058594 -26.8125 53.875 C-26.38195312 52.80185547 -25.95140625 51.72871094 -25.5078125 50.62304688 C-23.47887634 45.60234107 -21.39101284 40.62553699 -19.125 35.70703125 C-15.6746483 28.21385007 -12.60815582 20.55940297 -9.49023438 12.92382812 C-8.69867279 10.98743045 -7.90415369 9.05226646 -7.109375 7.1171875 C-6.64370117 5.97749512 -6.17802734 4.83780273 -5.69824219 3.66357422 C-4.13020534 0.07245974 -4.13020534 0.07245974 0 0 Z M-0.5625 21.0625 C-4.24431375 25.18417645 -6.25521679 29.38700217 -8.3125 34.4375 C-8.62832031 35.16710937 -8.94414063 35.89671875 -9.26953125 36.6484375 C-9.56730469 37.3703125 -9.86507812 38.0921875 -10.171875 38.8359375 C-10.5735791 39.80152588 -10.5735791 39.80152588 -10.98339844 40.78662109 C-11.85019308 43.80173864 -11.85019308 43.80173864 -11.5625 50.0625 C-3.9725 50.0625 3.6175 50.0625 11.4375 50.0625 C10.76973329 42.61957731 10.76973329 42.61957731 8.6953125 36.0625 C8.35113281 35.23878906 8.00695312 34.41507813 7.65234375 33.56640625 C7.29269531 32.74011719 6.93304688 31.91382813 6.5625 31.0625 C6.21058594 30.20527344 5.85867187 29.34804687 5.49609375 28.46484375 C4.12754222 25.18062052 4.12754222 25.18062052 2.4375 22.0625 C1.4475 21.7325 0.4575 21.4025 -0.5625 21.0625 Z " fill="#4584CC" transform="translate(134.5625,43.9375)"/>
<path d="M0 0 C3.75778369 0.50780861 5.55133796 1.10393016 8 4 C8.90380859 5.81835938 8.90380859 5.81835938 9.6484375 7.84375 C9.92864746 8.58915039 10.20885742 9.33455078 10.49755859 10.10253906 C10.78711426 10.89370117 11.07666992 11.68486328 11.375 12.5 C11.9976415 14.15193255 12.6226323 15.80298157 13.25 17.453125 C13.55164063 18.24654297 13.85328125 19.03996094 14.1640625 19.85742188 C15.1435812 22.36801069 16.22761376 24.81180424 17.375 27.25 C21.63378438 36.32680308 25.23909242 45.70899687 29 55 C30.32 55 31.64 55 33 55 C33.43570313 53.85144531 33.87140625 52.70289063 34.3203125 51.51953125 C37.43092845 43.3826527 40.65482398 35.38011544 44.38671875 27.50390625 C46.44057902 23.04310076 48.35032409 18.52821233 50.25 14 C50.76228149 12.7790564 50.76228149 12.7790564 51.28491211 11.53344727 C52.88713615 7.70079334 54.47328321 3.86352821 56 0 C58.8125 -0.1875 58.8125 -0.1875 62 0 C63.69921875 1.51171875 63.69921875 1.51171875 65 3 C62.66189112 10.44585681 59.73303653 17.53265657 56.625 24.6875 C55.84793701 26.48767578 55.84793701 26.48767578 55.05517578 28.32421875 C53.95110207 30.88165858 52.84464019 33.43804651 51.73632812 35.99365234 C50.25199541 39.41672897 48.7725862 42.84190883 47.29470825 46.26777649 C45.82291176 49.67913992 44.34896416 53.08957276 42.875 56.5 C42.59360168 57.15165131 42.31220337 57.80330261 42.02227783 58.47470093 C41.22179127 60.32740731 40.4195261 62.17934491 39.6171875 64.03125 C38.93052002 65.61776367 38.93052002 65.61776367 38.22998047 67.23632812 C37.82408691 68.14833984 37.41819336 69.06035156 37 70 C36.52071045 71.15145508 36.52071045 71.15145508 36.03173828 72.32617188 C35 74 35 74 31.875 74.75 C30.92625 74.8325 29.9775 74.915 29 75 C25.88056823 71.38986166 23.88479979 67.94302238 22.00390625 63.56640625 C21.73377716 62.9439653 21.46364807 62.32152435 21.18533325 61.68022156 C20.30370745 59.64406333 19.43300958 57.60343237 18.5625 55.5625 C17.95031915 54.14195354 17.33743482 52.72171006 16.72387695 51.30175781 C15.45259234 48.3571759 14.18543634 45.410864 12.92089844 42.46337891 C11.04059666 38.08623793 9.13618039 33.71988336 7.2265625 29.35546875 C6.33353022 27.31074072 5.44084329 25.26586234 4.54830933 23.22091675 C3.9770346 21.91292102 3.40503992 20.60523949 2.83230591 19.29788208 C2.03491693 17.47595135 1.24196605 15.65208018 0.44921875 13.828125 C-0.00106689 12.7959082 -0.45135254 11.76369141 -0.9152832 10.70019531 C-2.65825125 6.36140923 -2.65825125 6.36140923 -3 4 C-1.5625 1.75 -1.5625 1.75 0 0 Z " fill="#2B6BC8" transform="translate(41,44)"/>
<path d="M0 0 C1.00461777 -0.01268417 2.00923553 -0.02536835 3.04429626 -0.03843689 C4.12352859 -0.03550125 5.20276093 -0.03256561 6.31469727 -0.02954102 C7.98641747 -0.03740379 7.98641747 -0.03740379 9.69190979 -0.04542542 C12.04801602 -0.05184673 14.40415431 -0.05050724 16.76025391 -0.04199219 C20.36426945 -0.03348699 23.96669788 -0.06223666 27.57055664 -0.09399414 C29.86026971 -0.09560635 32.14998558 -0.09502824 34.43969727 -0.09204102 C36.05550941 -0.10889198 36.05550941 -0.10889198 37.70396423 -0.12608337 C45.21417878 -0.05617361 45.21417878 -0.05617361 49.16259766 2.43505859 C49.75032959 3.08482666 50.33806152 3.73459473 50.94360352 4.40405273 C50.63110352 6.77905273 50.63110352 6.77905273 49.94360352 9.40405273 C46.68970364 11.57331932 45.80964394 11.64485322 42.05688477 11.59936523 C41.1190918 11.59291992 40.18129883 11.58647461 39.21508789 11.57983398 C37.75039063 11.55469727 37.75039063 11.55469727 36.25610352 11.52905273 C35.26803711 11.5200293 34.2799707 11.51100586 33.26196289 11.50170898 C30.82226587 11.47813703 28.38305655 11.44523296 25.94360352 11.40405273 C25.95026535 12.18888031 25.95692719 12.97370789 25.96379089 13.78231812 C26.02383718 21.16918079 26.06954465 28.55592557 26.09904003 35.94296837 C26.11471357 39.74097456 26.13598211 43.53877955 26.16992188 47.33666992 C26.20245593 51.00007741 26.2204438 54.66329105 26.22823524 58.32683182 C26.23378955 59.72633543 26.24463551 61.12582813 26.26079369 62.52524948 C26.28248625 64.48132785 26.28382822 66.43760021 26.28417969 68.39379883 C26.29084152 69.50854584 26.29750336 70.62329285 26.30436707 71.77182007 C26.18531509 72.64045685 26.06626312 73.50909363 25.94360352 74.40405273 C22.94360352 76.40405273 22.94360352 76.40405273 19.88110352 76.21655273 C16.94360352 75.40405273 16.94360352 75.40405273 14.94360352 72.40405273 C14.70309448 69.72749329 14.70309448 69.72749329 14.71655273 66.46386719 C14.7167038 65.24282791 14.71685486 64.02178864 14.7170105 62.76374817 C14.72733307 61.44493149 14.73765564 60.12611481 14.74829102 58.76733398 C14.7520219 57.40398872 14.75486852 56.04064077 14.75686646 54.67729187 C14.76449699 51.09171119 14.78414036 47.50629294 14.80627441 43.92077637 C14.82674541 40.2609273 14.83587085 36.60105195 14.84594727 32.94116211 C14.86738691 25.76205166 14.90151573 18.58307497 14.94360352 11.40405273 C14.32839844 11.425 13.71319336 11.44594727 13.0793457 11.4675293 C10.28426542 11.5508229 7.48944637 11.60275287 4.69360352 11.65405273 C3.72551758 11.68756836 2.75743164 11.72108398 1.76000977 11.75561523 C-5.41831668 11.85462663 -5.41831668 11.85462663 -8.72827148 9.51733398 C-10.05639648 7.40405273 -10.05639648 7.40405273 -10.05639648 5.34155273 C-7.82557483 1.01933578 -4.63934169 0.02841835 0 0 Z " fill="#78C1DC" transform="translate(312.056396484375,42.595947265625)"/>
<path d="M0 0 C2.21448128 2.24124544 2.94955384 3.61422547 3.36076355 6.7588501 C3.35410172 7.81586121 3.34743988 8.87287231 3.34057617 9.96191406 C3.34034958 11.16285706 3.34012299 12.36380005 3.33988953 13.60113525 C3.32440567 14.89291687 3.30892181 16.18469849 3.29296875 17.515625 C3.28737052 18.85511805 3.28310149 20.19461726 3.28010559 21.53411865 C3.26867454 25.05237921 3.23922294 28.57026571 3.20599365 32.08837891 C3.17525489 35.68126364 3.16159216 39.27420906 3.14648438 42.8671875 C3.11435113 49.91161096 3.06317621 56.955781 3 64 C4.03930664 63.98428955 5.07861328 63.9685791 6.14941406 63.95239258 C10.0108259 63.89803158 13.872204 63.86362767 17.73388672 63.83520508 C19.40419201 63.82013246 21.07445781 63.7996708 22.74462891 63.77368164 C25.14756013 63.73723027 27.54996744 63.72025869 29.953125 63.70703125 C30.69806213 63.69154739 31.44299927 63.67606354 32.21051025 63.66011047 C35.41044749 63.65907527 37.64521709 63.80479942 40.47558594 65.36206055 C42 67 42 67 42.4375 69.5 C41.92895459 72.40597379 41.34350849 73.26406779 39 75 C35.17671223 76.27442926 31.55588082 76.18195319 27.5703125 76.203125 C26.742966 76.20882507 25.91561951 76.21452515 25.0632019 76.22039795 C23.31314368 76.22984023 21.56306773 76.23637887 19.81298828 76.24023438 C17.14193569 76.24993847 14.47165325 76.28096785 11.80078125 76.3125 C10.09896289 76.31903058 8.39713904 76.32428084 6.6953125 76.328125 C5.89932648 76.3404718 5.10334045 76.3528186 4.28323364 76.36553955 C-0.30041386 76.34721603 -3.27037816 75.96385426 -7 73 C-8.41945839 70.16108323 -8.14298829 67.7526569 -8.16113281 64.57836914 C-8.16609772 63.91965317 -8.17106262 63.26093719 -8.17617798 62.58226013 C-8.1908014 60.39988161 -8.19760133 58.21757574 -8.203125 56.03515625 C-8.20887567 54.52062477 -8.21463341 53.00609332 -8.22039795 51.49156189 C-8.230908 48.31476502 -8.23675084 45.13799346 -8.24023438 41.96118164 C-8.24572361 37.887664 -8.26976043 33.81447987 -8.29820633 29.74106693 C-8.31681502 26.61241167 -8.32203732 23.48383709 -8.32357025 20.35513115 C-8.3266006 18.85319632 -8.33464201 17.35126304 -8.34775543 15.8493824 C-8.36478212 13.74967047 -8.36294476 11.65077805 -8.35644531 9.55102539 C-8.36009094 8.35570694 -8.36373657 7.16038849 -8.36749268 5.92884827 C-8 3 -8 3 -6.63397217 1.11790466 C-4.26201928 -0.50489972 -2.8045972 -0.49080451 0 0 Z " fill="#69AED6" transform="translate(269,44)"/>
</svg>
