<?xml version="1.0" encoding="UTF-8"?>
<svg version="1.1" xmlns="http://www.w3.org/2000/svg" width="626" height="626">
<path d="M0 0 C0.74773568 -0.00297112 1.49547135 -0.00594224 2.26586568 -0.0090034 C4.77290738 -0.01767896 7.27990127 -0.0191977 9.78695679 -0.02069092 C11.58410748 -0.02531999 13.38125719 -0.03034478 15.17840576 -0.03573608 C20.06298171 -0.04885567 24.94754391 -0.05530448 29.83213472 -0.05974674 C32.88560324 -0.0626789 35.93906801 -0.06678404 38.99253464 -0.07125092 C48.55106324 -0.08492627 58.10958327 -0.09459207 67.66812098 -0.09845281 C78.69231373 -0.10293021 89.71638229 -0.12046323 100.74053729 -0.1494534 C109.26724552 -0.17109539 117.79391888 -0.18115847 126.32065427 -0.18249393 C131.41042886 -0.18354038 136.5000867 -0.18941401 141.58983231 -0.20731354 C146.38166763 -0.22383716 151.17329901 -0.22592892 155.96515274 -0.21717453 C157.71864876 -0.21640638 159.47215593 -0.2207174 161.22562408 -0.23063278 C174.01543774 -0.29868178 184.74112773 0.17490837 194.60092163 9.14044189 C202.01059348 16.75593796 203.7306433 26.27291377 203.8062439 36.50836182 C203.81614349 37.34251617 203.82604309 38.17667053 203.83624268 39.03610229 C203.86794922 41.81434298 203.89275573 44.59259835 203.91732788 47.37091064 C203.93799222 49.35474484 203.95899039 51.33857559 203.9803009 53.32240295 C204.02437892 57.52157264 204.0651985 61.72075762 204.10360718 65.91998291 C204.15065807 71.0508638 204.20387509 76.18165177 204.25978637 81.3124429 C204.50491525 104.0877604 204.63123614 126.86136657 204.61947632 149.63800049 C204.61877432 152.15315278 204.61808715 154.66830508 204.61741352 157.18345737 C204.60080077 202.94419862 204.49338382 248.70483105 204.36520672 294.46537685 C204.35624537 297.6813652 204.34733532 300.89735368 204.33847046 304.11334229 C204.33626678 304.9120393 204.33406309 305.71073632 204.33179263 306.53363628 C204.2960398 319.60752369 204.2713596 332.68141068 204.25057461 345.75532948 C204.22880377 359.30497542 204.195795 372.85455985 204.15222007 386.40415341 C204.12587171 394.70261148 204.10805346 403.00099351 204.10157559 411.29949129 C204.09631471 416.95473206 204.0800748 422.60987545 204.05525597 428.26506393 C204.04129805 431.51744036 204.03368453 434.76960928 204.03591347 438.02202034 C204.03756987 441.55355394 204.02083814 445.08455253 203.99964905 448.61601257 C204.00692041 450.13696813 204.00692041 450.13696813 204.01433867 451.68865007 C203.9046295 462.80280101 201.62103329 472.1668686 193.60092163 480.14044189 C186.06678169 486.44369003 178.4456852 488.45472948 168.7208252 488.40113831 C167.96967182 488.40496385 167.21851845 488.4087894 166.44460285 488.41273087 C163.94992384 488.42297639 161.45547863 488.41908495 158.96078491 488.4151001 C157.1630431 488.41945126 155.36530314 488.42463576 153.56756592 488.43058777 C148.69973386 488.44394565 143.83197959 488.44456 138.96413279 488.44202447 C134.89369997 488.44095255 130.82328274 488.44584379 126.75285327 488.45062989 C117.14637063 488.46171403 107.5399271 488.46216867 97.93344116 488.45611572 C88.03820914 488.45007651 78.14311933 488.46238816 68.24791157 488.48368579 C59.73810107 488.50132506 51.22833575 488.50729947 42.71850765 488.50404805 C37.64221571 488.50223872 32.56602522 488.50483638 27.48974991 488.51876259 C22.71426418 488.53137412 17.93899949 488.52936543 13.163517 488.5163517 C11.41647262 488.51399358 9.66941251 488.51669303 7.92238617 488.52497482 C-4.15305784 488.57806635 -14.68994787 488.28065857 -24.35220337 480.24591064 C-29.53706894 474.91262335 -33.51216408 468.27726761 -33.53774357 460.73921871 C-33.54321801 459.83313207 -33.54869246 458.92704542 -33.55433279 457.9935016 C-33.5553109 456.99599321 -33.55628901 455.99848482 -33.55729675 454.9707489 C-33.56223473 453.91086999 -33.56717271 452.85099109 -33.57226032 451.75899464 C-33.58769207 448.18359001 -33.5960144 444.60820348 -33.60440063 441.03277588 C-33.61398163 438.47169335 -33.62399184 435.91061239 -33.63439941 433.34953308 C-33.65910119 427.07056025 -33.67848345 420.7915814 -33.69615216 414.51258527 C-33.71726888 407.08258338 -33.74371127 399.65260308 -33.77032363 392.22261918 C-33.81818328 378.81071705 -33.86129818 365.39880375 -33.90176392 351.98687744 C-33.94016581 339.26062794 -33.98155689 326.53439369 -34.02676392 313.8081665 C-34.03226165 312.25780372 -34.03775883 310.70744093 -34.04325545 309.15707815 C-34.04733201 308.00743742 -34.04733201 308.00743742 -34.05149093 306.83457164 C-34.05420559 306.06884277 -34.05692025 305.30311391 -34.05971718 304.51418114 C-34.06242938 303.74932318 -34.06514159 302.98446522 -34.06793598 302.19642975 C-34.27665605 243.2277009 -34.44385965 184.2586784 -34.48292351 125.28956795 C-34.48638929 120.14510677 -34.49198465 115.00065583 -34.49966621 109.85619926 C-34.51998976 95.29209542 -34.49603032 80.72910955 -34.41291189 66.16522837 C-34.3991447 63.15494648 -34.39482669 60.14478272 -34.39296341 57.13447189 C-34.38814694 52.44906427 -34.35318148 47.76483334 -34.29427063 43.07980239 C-34.277437 41.39550412 -34.27026633 39.71107333 -34.27412784 38.02669537 C-34.28997045 27.16745707 -33.14241815 17.68981385 -25.65564823 9.15233517 C-18.61607175 2.36927943 -9.48307842 -0.01178117 0 0 Z M-19.80142212 12.99981689 C-20.30802368 13.62372314 -20.81462524 14.24762939 -21.33657837 14.89044189 C-21.86122681 15.50403564 -22.38587524 16.11762939 -22.92642212 16.74981689 C-26.55950091 22.64754692 -27.7740428 27.9927554 -27.77660179 34.86200619 C-27.78096211 35.59960638 -27.78532244 36.33720657 -27.78981489 37.09715828 C-27.80072663 39.55838563 -27.7903685 42.01904752 -27.7800293 44.48027039 C-27.78348748 46.26680206 -27.78825312 48.0533316 -27.79421103 49.83985668 C-27.80672868 54.74134603 -27.8005471 59.64266003 -27.79125237 64.54414999 C-27.78446534 69.83326822 -27.79494144 75.12235627 -27.80319214 80.41146851 C-27.81653561 90.7700622 -27.8136489 101.1285907 -27.80495422 111.48718696 C-27.79818014 119.90607078 -27.79725976 128.32493633 -27.80052567 136.7438221 C-27.80098536 137.94187109 -27.80144506 139.13992008 -27.80191869 140.37427359 C-27.80287787 142.80807074 -27.80385051 145.24186789 -27.80483647 147.67566503 C-27.81339226 170.50056317 -27.80355345 193.32542517 -27.78743537 216.15031738 C-27.77403374 235.73469014 -27.77635865 255.31900955 -27.79019165 274.90338135 C-27.80624707 297.64484268 -27.81256646 320.38627233 -27.80335486 343.12773854 C-27.80239921 345.55290766 -27.8014561 347.97807679 -27.80052567 350.40324593 C-27.80006284 351.59647936 -27.79960001 352.7897128 -27.79912316 354.01910482 C-27.79653303 362.42726391 -27.8009048 370.8354029 -27.80796432 379.24355888 C-27.81637916 389.49124976 -27.81409956 399.7388717 -27.79812209 409.98655467 C-27.79023894 415.21497679 -27.78714859 420.44328398 -27.79706955 425.67170525 C-27.80601602 430.45898152 -27.80108425 435.24603644 -27.78513689 440.03329266 C-27.78178889 441.76402099 -27.7834836 443.49476805 -27.79076426 445.2254843 C-27.91132256 461.1848937 -27.91132256 461.1848937 -20.07876587 474.63653564 C-13.9713674 480.10478776 -7.96095283 481.28971726 0 481.28761292 C0.74773568 481.2912896 1.49547135 481.29496629 2.26586568 481.29875439 C4.77290302 481.30977252 7.27989888 481.31363191 9.78695679 481.31744385 C11.58410778 481.32370997 13.38125748 481.33035691 15.17840576 481.33735657 C21.08225606 481.35838381 26.98610658 481.36875856 32.88998413 481.37872314 C34.92416777 481.38277137 36.95835127 481.38688832 38.99253464 481.39107323 C48.55106088 481.41012294 58.10957941 481.42435374 67.66812098 481.4326852 C78.69235035 481.44245341 89.71637872 481.46876304 100.74053729 481.50918609 C109.26724466 481.5393757 117.79389451 481.55415683 126.32065427 481.55746621 C131.41047103 481.55981368 136.500073 481.56873461 141.58983231 481.59392738 C146.38171019 481.61726249 151.17323269 481.62141948 155.96515274 481.611166 C157.71865524 481.61067183 159.47217555 481.61695702 161.22562408 481.63072205 C171.31705754 481.705475 180.65784624 481.74028561 189.00326538 475.28106689 C189.50986694 474.65716064 190.01646851 474.03325439 190.53842163 473.39044189 C191.06307007 472.77684814 191.58771851 472.16325439 192.12826538 471.53106689 C195.76395325 465.62910144 196.97583783 460.2801401 196.98123837 453.40605354 C196.98589828 452.66706457 196.9905582 451.92807561 196.99535933 451.16669303 C197.00727061 448.700738 196.99792911 446.23533789 196.98860168 443.76937866 C196.9927763 441.97943439 196.99825452 440.18949276 197.0049215 438.39955604 C197.01937807 433.48860111 197.01513068 428.57781398 197.00775468 423.66684985 C197.00302585 418.36748347 197.01553037 413.06815354 197.02577209 407.76879883 C197.0429711 397.3898209 197.0437978 387.01090347 197.03855919 376.63191499 C197.03451825 368.19587648 197.03596015 359.75985586 197.04130745 351.32381821 C197.04205587 350.12328258 197.04280429 348.92274695 197.04357539 347.68583145 C197.04510687 345.24696303 197.04664522 342.80809461 197.04819036 340.3692262 C197.06191944 317.49613393 197.05647489 294.62307586 197.04500515 271.74998437 C197.03507274 250.82506846 197.04801289 229.90024098 197.07193934 208.97533871 C197.09632267 187.48897216 197.10594007 166.00264681 197.09928662 144.5162667 C197.09579265 132.45356861 197.09803821 120.39093852 197.11553764 108.32825089 C197.13025002 98.05934809 197.13090763 87.7905612 197.11346673 77.5216607 C197.10494642 72.28295433 197.1028325 67.04445508 197.11811829 61.80575943 C197.13194443 57.00788977 197.12722876 52.2104051 197.10787905 47.41255783 C197.10411238 45.67911885 197.10706021 43.94564918 197.1174907 42.21223749 C197.17330731 32.22411749 197.13121121 22.99365217 190.74154663 14.73809814 C190.11764038 14.23149658 189.49373413 13.72489502 188.85092163 13.20294189 C188.23732788 12.67829346 187.62373413 12.15364502 186.99154663 11.61309814 C178.33706818 6.28182629 169.90247796 6.78190947 160.10092163 6.95294189 C158.59572666 6.96801329 157.09051712 6.98169736 155.58529663 6.99395752 C151.92353222 7.02677503 148.26232142 7.07842201 144.60092163 7.14044189 C144.54033569 8.03247314 144.47974976 8.92450439 144.41732788 9.84356689 C144.33353882 11.01403564 144.24974976 12.18450439 144.16342163 13.39044189 C144.04160522 15.13067627 144.04160522 15.13067627 143.91732788 16.90606689 C143.44585995 21.72551683 143.44585995 21.72551683 142.60092163 24.14044189 C138.83225535 26.60956808 134.80161437 27.26269982 130.3638916 27.28088379 C129.5256485 27.28659393 128.6874054 27.29230408 127.82376099 27.29818726 C126.45686127 27.29986404 126.45686127 27.29986404 125.06234741 27.30157471 C123.6128923 27.30902206 123.6128923 27.30902206 122.13415527 27.31661987 C118.93817431 27.33122251 115.74224297 27.33803991 112.54623413 27.34356689 C110.32430012 27.34931935 108.10236612 27.35507707 105.88043213 27.36083984 C101.22166716 27.37134404 96.56291943 27.3771907 91.90414429 27.38067627 C85.9365311 27.38616364 79.96914577 27.41019946 74.00160408 27.43864822 C69.41193985 27.45727608 64.82233053 27.46248026 60.23263168 27.46401215 C58.0326195 27.46703821 55.83260828 27.47506516 53.63263321 27.48819733 C50.55434077 27.50526265 47.47660554 27.50337636 44.39828491 27.49688721 C43.49106689 27.50610199 42.58384888 27.51531677 41.6491394 27.52481079 C36.55014759 27.49116031 33.00893378 26.99617959 28.60092163 24.14044189 C25.68508243 20.49098004 25.16635953 17.43141167 24.91342163 12.82794189 C24.81480835 11.22499268 24.81480835 11.22499268 24.71420288 9.58966064 C24.65812866 8.37729736 24.65812866 8.37729736 24.60092163 7.14044189 C20.22679495 7.04052334 15.85329726 6.96848705 11.47836304 6.92071533 C9.99452115 6.90077209 8.51075608 6.873607 7.02719116 6.83868408 C-2.82571064 6.61279153 -11.66512251 6.70245329 -19.80142212 12.99981689 Z M71.60092163 14.14044189 C70.94092163 15.46044189 70.28092163 16.78044189 69.60092163 18.14044189 C71.44048141 20.40884166 71.44048141 20.40884166 74.21469116 20.36749268 C75.29347534 20.35701904 76.37225952 20.34654541 77.48373413 20.33575439 C78.65033569 20.32930908 79.81693726 20.32286377 81.01889038 20.31622314 C82.24221069 20.29946533 83.46553101 20.28270752 84.72592163 20.26544189 C86.57250366 20.25190674 86.57250366 20.25190674 88.45639038 20.23809814 C91.50475978 20.21446737 94.55274545 20.18152244 97.60092163 20.14044189 C98.26092163 18.82044189 98.92092163 17.50044189 99.60092163 16.14044189 C96.15458281 13.84288268 94.89023772 13.90400214 90.83920288 13.94512939 C89.1618103 13.95479736 89.1618103 13.95479736 87.45053101 13.96466064 C86.28328491 13.98141846 85.11603882 13.99817627 83.91342163 14.01544189 C82.14515015 14.02897705 82.14515015 14.02897705 80.34115601 14.04278564 C77.42754137 14.06637767 74.51433271 14.09929649 71.60092163 14.14044189 Z " fill="#FFFFFF" transform="translate(237.39907836914063,68.85955810546875)"/>
</svg>
